<svg width="129" height="38" viewBox="0 0 129 38" fill="none" xmlns="http://www.w3.org/2000/svg">
<path d="M2.83122e-07 37V0.999999H6.8V30.65H22.3V37H2.83122e-07ZM39.5242 37.75C35.9242 37.75 32.8159 36.9667 30.1992 35.4C27.5992 33.8333 25.5909 31.6417 24.1742 28.825C22.7742 26.0083 22.0742 22.7333 22.0742 19C22.0742 15.2667 22.7742 11.9917 24.1742 9.175C25.5909 6.35833 27.5992 4.16667 30.1992 2.6C32.8159 1.03333 35.9242 0.249999 39.5242 0.249999C43.1242 0.249999 46.2242 1.03333 48.8242 2.6C51.4409 4.16667 53.4492 6.35833 54.8492 9.175C56.2659 11.9917 56.9742 15.2667 56.9742 19C56.9742 22.7333 56.2659 26.0083 54.8492 28.825C53.4492 31.6417 51.4409 33.8333 48.8242 35.4C46.2242 36.9667 43.1242 37.75 39.5242 37.75ZM39.5242 31.35C41.8076 31.3833 43.7076 30.8917 45.2242 29.875C46.7409 28.8583 47.8742 27.4167 48.6242 25.55C49.3909 23.6833 49.7742 21.5 49.7742 19C49.7742 16.5 49.3909 14.3333 48.6242 12.5C47.8742 10.6667 46.7409 9.24167 45.2242 8.225C43.7076 7.20833 41.8076 6.68333 39.5242 6.65C37.2409 6.61666 35.3409 7.10833 33.8242 8.125C32.3076 9.14166 31.1659 10.5833 30.3992 12.45C29.6492 14.3167 29.2742 16.5 29.2742 19C29.2742 21.5 29.6492 23.6667 30.3992 25.5C31.1659 27.3333 32.3076 28.7583 33.8242 29.775C35.3409 30.7917 37.2409 31.3167 39.5242 31.35Z" fill="white"/>
<path d="M75.4648 37.75C73.1982 37.75 71.0398 37.35 68.9898 36.55C66.9398 35.7333 65.1232 34.5333 63.5398 32.95C61.9732 31.3667 60.7315 29.4083 59.8148 27.075C58.9148 24.7417 58.4648 22.05 58.4648 19C58.4648 15.0167 59.2232 11.6333 60.7398 8.85C62.2732 6.05 64.3232 3.91667 66.8898 2.45C69.4732 0.983332 72.3315 0.249999 75.4648 0.249999C80.0982 0.249999 83.7398 1.325 86.3898 3.475C89.0398 5.625 90.8148 8.66667 91.7148 12.6L84.7648 13.6C84.1148 11.5 83.0482 9.825 81.5648 8.575C80.0982 7.30833 78.2148 6.66666 75.9148 6.65C73.6315 6.61666 71.7315 7.10833 70.2148 8.125C68.6982 9.14166 67.5565 10.5833 66.7898 12.45C66.0398 14.3167 65.6648 16.5 65.6648 19C65.6648 21.5 66.0398 23.6667 66.7898 25.5C67.5565 27.3333 68.6982 28.7583 70.2148 29.775C71.7315 30.7917 73.6315 31.3167 75.9148 31.35C77.4648 31.3833 78.8648 31.1167 80.1148 30.55C81.3815 29.9833 82.4482 29.0917 83.3148 27.875C84.1815 26.6583 84.7982 25.1 85.1648 23.2H79.4648V17.95H92.4148C92.4482 18.1667 92.4732 18.55 92.4898 19.1C92.5065 19.65 92.5148 19.9667 92.5148 20.05C92.5148 23.5 91.8148 26.5583 90.4148 29.225C89.0148 31.8917 87.0398 33.9833 84.4898 35.5C81.9398 37 78.9315 37.75 75.4648 37.75ZM111.475 37.75C107.875 37.75 104.767 36.9667 102.15 35.4C99.5504 33.8333 97.5421 31.6417 96.1254 28.825C94.7254 26.0083 94.0254 22.7333 94.0254 19C94.0254 15.2667 94.7254 11.9917 96.1254 9.175C97.5421 6.35833 99.5504 4.16667 102.15 2.6C104.767 1.03333 107.875 0.249999 111.475 0.249999C115.075 0.249999 118.175 1.03333 120.775 2.6C123.392 4.16667 125.4 6.35833 126.8 9.175C128.217 11.9917 128.925 15.2667 128.925 19C128.925 22.7333 128.217 26.0083 126.8 28.825C125.4 31.6417 123.392 33.8333 120.775 35.4C118.175 36.9667 115.075 37.75 111.475 37.75ZM111.475 31.35C113.759 31.3833 115.659 30.8917 117.175 29.875C118.692 28.8583 119.825 27.4167 120.575 25.55C121.342 23.6833 121.725 21.5 121.725 19C121.725 16.5 121.342 14.3333 120.575 12.5C119.825 10.6667 118.692 9.24167 117.175 8.225C115.659 7.20833 113.759 6.68333 111.475 6.65C109.192 6.61666 107.292 7.10833 105.775 8.125C104.259 9.14166 103.117 10.5833 102.35 12.45C101.6 14.3167 101.225 16.5 101.225 19C101.225 21.5 101.6 23.6667 102.35 25.5C103.117 27.3333 104.259 28.7583 105.775 29.775C107.292 30.7917 109.192 31.3167 111.475 31.35Z" fill="#A1D138"/>
</svg>
