<svg width="24" height="24" viewBox="0 0 24 24" fill="none" xmlns="http://www.w3.org/2000/svg">
<path d="M20.8645 1.6001H3.13542C2.7282 1.6001 2.33765 1.76187 2.0497 2.04982C1.76175 2.33777 1.59998 2.72832 1.59998 3.13554V20.8647C1.59998 21.2719 1.76175 21.6624 2.0497 21.9504C2.33765 22.2383 2.7282 22.4001 3.13542 22.4001H20.8645C21.2718 22.4001 21.6623 22.2383 21.9503 21.9504C22.2382 21.6624 22.4 21.2719 22.4 20.8647V3.13554C22.4 2.72832 22.2382 2.33777 21.9503 2.04982C21.6623 1.76187 21.2718 1.6001 20.8645 1.6001ZM7.79953 19.3191H4.67231V9.38565H7.79953V19.3191ZM6.23375 8.0091C5.87902 8.0071 5.53284 7.90007 5.23888 7.70151C4.94492 7.50295 4.71637 7.22176 4.58207 6.89343C4.44777 6.5651 4.41374 6.20434 4.48427 5.85669C4.5548 5.50904 4.72674 5.19007 4.97838 4.94004C5.23002 4.69001 5.55008 4.52013 5.89818 4.45183C6.24628 4.38353 6.60681 4.41988 6.93427 4.55628C7.26173 4.69269 7.54144 4.92304 7.73811 5.21827C7.93478 5.51349 8.03959 5.86036 8.03931 6.2151C8.04266 6.45259 7.99815 6.68833 7.90845 6.90826C7.81875 7.12819 7.68569 7.32781 7.5172 7.49522C7.34871 7.66263 7.14824 7.79441 6.92774 7.8827C6.70724 7.97098 6.47122 8.01397 6.23375 8.0091ZM19.3262 19.3278H16.2004V13.901C16.2004 12.3005 15.5201 11.8065 14.6419 11.8065C13.7145 11.8065 12.8045 12.5057 12.8045 13.9414V19.3278H9.67731V9.39288H12.6846V10.7694H12.7251C13.027 10.1584 14.0843 9.1141 15.6978 9.1141C17.4426 9.1141 19.3276 10.1498 19.3276 13.1831L19.3262 19.3278Z" fill="white"/>
</svg>
