<svg width="181" height="44" viewBox="0 0 181 44" fill="none" xmlns="http://www.w3.org/2000/svg">
<rect x="1.16675" y="0.5" width="179" height="43" rx="21.5" fill="#141414"/>
<rect x="1.16675" y="0.5" width="179" height="43" rx="21.5" stroke="#262626"/>
<path d="M26.9414 12.9429C27.7141 11.6249 29.6194 11.6249 30.3921 12.9429L32.1179 15.8866C32.3999 16.3676 32.8699 16.709 33.4144 16.8286L36.7474 17.5603C38.2396 17.8879 38.8284 19.7 37.8137 20.8421L35.5474 23.3931C35.1771 23.8099 34.9976 24.3624 35.0522 24.9173L35.3862 28.3132C35.5358 29.8337 33.9943 30.9536 32.5945 30.3415L29.468 28.9744C28.9572 28.751 28.3763 28.751 27.8655 28.9744L24.7389 30.3415C23.3391 30.9536 21.7977 29.8337 21.9473 28.3132L22.2813 24.9173C22.3359 24.3624 22.1564 23.8099 21.7861 23.3931L19.5198 20.8421C18.5051 19.7 19.0939 17.8879 20.5861 17.5603L23.9191 16.8286C24.4636 16.709 24.9336 16.3676 25.2156 15.8866L26.9414 12.9429Z" fill="#FFCE22"/>
<path d="M57.9414 12.9429C58.7141 11.6249 60.6194 11.6249 61.3921 12.9429L63.1179 15.8866C63.3999 16.3676 63.8699 16.709 64.4144 16.8286L67.7474 17.5603C69.2396 17.8879 69.8284 19.7 68.8137 20.8421L66.5474 23.3931C66.1771 23.8099 65.9976 24.3624 66.0522 24.9173L66.3862 28.3132C66.5358 29.8337 64.9943 30.9536 63.5945 30.3415L60.468 28.9744C59.9572 28.751 59.3763 28.751 58.8655 28.9744L55.7389 30.3415C54.3391 30.9536 52.7977 29.8337 52.9473 28.3132L53.2813 24.9173C53.3359 24.3624 53.1564 23.8099 52.7861 23.3931L50.5198 20.8421C49.5051 19.7 50.0939 17.8879 51.5861 17.5603L54.9191 16.8286C55.4636 16.709 55.9336 16.3676 56.2156 15.8866L57.9414 12.9429Z" fill="#FFCE22"/>
<path d="M88.9414 12.9429C89.7141 11.6249 91.6194 11.6249 92.3921 12.9429L94.1179 15.8866C94.3999 16.3676 94.8699 16.709 95.4144 16.8286L98.7474 17.5603C100.24 17.8879 100.828 19.7 99.8137 20.8421L97.5474 23.3931C97.1771 23.8099 96.9976 24.3624 97.0522 24.9173L97.3862 28.3132C97.5358 29.8337 95.9943 30.9536 94.5945 30.3415L91.468 28.9744C90.9572 28.751 90.3763 28.751 89.8655 28.9744L86.7389 30.3415C85.3391 30.9536 83.7977 29.8337 83.9473 28.3132L84.2813 24.9173C84.3359 24.3624 84.1564 23.8099 83.7861 23.3931L81.5198 20.8421C80.5051 19.7 81.0939 17.8879 82.5861 17.5603L85.9191 16.8286C86.4636 16.709 86.9336 16.3676 87.2156 15.8866L88.9414 12.9429Z" fill="#FFCE22"/>
<path d="M119.941 12.9429C120.714 11.6249 122.619 11.6249 123.392 12.9429L125.118 15.8866C125.4 16.3676 125.87 16.709 126.414 16.8286L129.747 17.5603C131.24 17.8879 131.828 19.7 130.814 20.8421L128.547 23.3931C128.177 23.8099 127.998 24.3624 128.052 24.9173L128.386 28.3132C128.536 29.8337 126.994 30.9536 125.595 30.3415L122.468 28.9744C121.957 28.751 121.376 28.751 120.865 28.9744L117.739 30.3415C116.339 30.9536 114.798 29.8337 114.947 28.3132L115.281 24.9173C115.336 24.3624 115.156 23.8099 114.786 23.3931L112.52 20.8421C111.505 19.7 112.094 17.8879 113.586 17.5603L116.919 16.8286C117.464 16.709 117.934 16.3676 118.216 15.8866L119.941 12.9429Z" fill="#FFCE22"/>
<path d="M150.941 12.9429C151.714 11.6249 153.619 11.6249 154.392 12.9429L156.118 15.8866C156.4 16.3676 156.87 16.709 157.414 16.8286L160.747 17.5603C162.24 17.8879 162.828 19.7 161.814 20.8421L159.547 23.3931C159.177 23.8099 158.998 24.3624 159.052 24.9173L159.386 28.3132C159.536 29.8337 157.994 30.9536 156.595 30.3415L153.468 28.9744C152.957 28.751 152.376 28.751 151.865 28.9744L148.739 30.3415C147.339 30.9536 145.798 29.8337 145.947 28.3132L146.281 24.9173C146.336 24.3624 146.156 23.8099 145.786 23.3931L143.52 20.8421C142.505 19.7 143.094 17.8879 144.586 17.5603L147.919 16.8286C148.464 16.709 148.934 16.3676 149.216 15.8866L150.941 12.9429Z" fill="#FFCE22"/>
</svg>
