<svg width="466" height="161" viewBox="0 0 466 161" fill="none" xmlns="http://www.w3.org/2000/svg">
<rect x="0.5" y="0.5" width="464.333" height="160" rx="11.5" fill="#334149"/>
<rect x="0.5" y="0.5" width="464.333" height="160" rx="11.5" stroke="#262626"/>
<path d="M54.2431 56.9091H56.1352L60.584 67.7756H60.7374L65.1863 56.9091H67.0783V70H65.5954V60.054H65.4675L61.3766 70H59.9448L55.8539 60.054H55.7261V70H54.2431V56.9091ZM74.0409 70.2045C73.1545 70.2045 72.3768 69.9936 71.7078 69.5717C71.043 69.1499 70.5231 68.5597 70.1481 67.8011C69.7774 67.0426 69.592 66.1562 69.592 65.142C69.592 64.1193 69.7774 63.2266 70.1481 62.4638C70.5231 61.701 71.043 61.1087 71.7078 60.6868C72.3768 60.2649 73.1545 60.054 74.0409 60.054C74.9272 60.054 75.7028 60.2649 76.3676 60.6868C77.0366 61.1087 77.5565 61.701 77.9272 62.4638C78.3022 63.2266 78.4897 64.1193 78.4897 65.142C78.4897 66.1562 78.3022 67.0426 77.9272 67.8011C77.5565 68.5597 77.0366 69.1499 76.3676 69.5717C75.7028 69.9936 74.9272 70.2045 74.0409 70.2045ZM74.0409 68.8494C74.7142 68.8494 75.2681 68.6768 75.7028 68.3317C76.1375 67.9865 76.4592 67.5327 76.668 66.9702C76.8768 66.4077 76.9812 65.7983 76.9812 65.142C76.9812 64.4858 76.8768 63.8743 76.668 63.3075C76.4592 62.7408 76.1375 62.2827 75.7028 61.9332C75.2681 61.5838 74.7142 61.4091 74.0409 61.4091C73.3676 61.4091 72.8136 61.5838 72.3789 61.9332C71.9443 62.2827 71.6225 62.7408 71.4137 63.3075C71.2049 63.8743 71.1005 64.4858 71.1005 65.142C71.1005 65.7983 71.2049 66.4077 71.4137 66.9702C71.6225 67.5327 71.9443 67.9865 72.3789 68.3317C72.8136 68.6768 73.3676 68.8494 74.0409 68.8494ZM87.747 62.3807L86.3919 62.7642C86.3067 62.5384 86.181 62.3189 86.0148 62.1058C85.8528 61.8885 85.6312 61.7095 85.35 61.5689C85.0687 61.4283 84.7087 61.358 84.2697 61.358C83.6689 61.358 83.1682 61.4964 82.7676 61.7734C82.3713 62.0462 82.1732 62.3935 82.1732 62.8153C82.1732 63.1903 82.3095 63.4865 82.5822 63.7038C82.855 63.9212 83.2811 64.1023 83.8607 64.2472L85.318 64.6051C86.1959 64.8182 86.85 65.1442 87.2804 65.5831C87.7108 66.0178 87.926 66.5781 87.926 67.2642C87.926 67.8267 87.7641 68.3295 87.4402 68.7727C87.1206 69.2159 86.6732 69.5653 86.0979 69.821C85.5226 70.0767 84.8536 70.2045 84.0908 70.2045C83.0893 70.2045 82.2605 69.9872 81.6043 69.5526C80.948 69.1179 80.5325 68.483 80.3578 67.6477L81.7896 67.2898C81.926 67.8182 82.1838 68.2145 82.5631 68.4787C82.9466 68.7429 83.4473 68.875 84.0652 68.875C84.7683 68.875 85.3266 68.7259 85.7399 68.4276C86.1575 68.125 86.3663 67.7628 86.3663 67.3409C86.3663 67 86.247 66.7145 86.0084 66.4844C85.7697 66.25 85.4033 66.0753 84.9089 65.9602L83.2726 65.5767C82.3734 65.3636 81.7129 65.0334 81.2911 64.5859C80.8734 64.1342 80.6646 63.5696 80.6646 62.892C80.6646 62.3381 80.8202 61.848 81.1312 61.4219C81.4466 60.9957 81.8749 60.6612 82.4161 60.4183C82.9615 60.1754 83.5794 60.054 84.2697 60.054C85.2413 60.054 86.0041 60.267 86.5581 60.6932C87.1163 61.1193 87.5126 61.6818 87.747 62.3807ZM94.4667 60.1818V61.4602H89.3786V60.1818H94.4667ZM90.8615 57.8295H92.3701V67.1875C92.3701 67.6136 92.4319 67.9332 92.5554 68.1463C92.6833 68.3551 92.8452 68.4957 93.0412 68.5682C93.2415 68.6364 93.4524 68.6705 93.674 68.6705C93.8402 68.6705 93.9766 68.6619 94.0831 68.6449C94.1897 68.6236 94.2749 68.6065 94.3388 68.5938L94.6456 69.9489C94.5434 69.9872 94.4006 70.0256 94.2174 70.0639C94.0341 70.1065 93.8019 70.1278 93.5206 70.1278C93.0945 70.1278 92.6769 70.0362 92.2678 69.853C91.863 69.6697 91.5263 69.3906 91.2578 69.0156C90.9936 68.6406 90.8615 68.1676 90.8615 67.5966V57.8295ZM108.753 62.3807L107.398 62.7642C107.313 62.5384 107.187 62.3189 107.021 62.1058C106.859 61.8885 106.637 61.7095 106.356 61.5689C106.075 61.4283 105.715 61.358 105.276 61.358C104.675 61.358 104.174 61.4964 103.773 61.7734C103.377 62.0462 103.179 62.3935 103.179 62.8153C103.179 63.1903 103.315 63.4865 103.588 63.7038C103.861 63.9212 104.287 64.1023 104.867 64.2472L106.324 64.6051C107.202 64.8182 107.856 65.1442 108.286 65.5831C108.717 66.0178 108.932 66.5781 108.932 67.2642C108.932 67.8267 108.77 68.3295 108.446 68.7727C108.126 69.2159 107.679 69.5653 107.104 69.821C106.528 70.0767 105.859 70.2045 105.097 70.2045C104.095 70.2045 103.266 69.9872 102.61 69.5526C101.954 69.1179 101.538 68.483 101.364 67.6477L102.795 67.2898C102.932 67.8182 103.19 68.2145 103.569 68.4787C103.952 68.7429 104.453 68.875 105.071 68.875C105.774 68.875 106.332 68.7259 106.746 68.4276C107.163 68.125 107.372 67.7628 107.372 67.3409C107.372 67 107.253 66.7145 107.014 66.4844C106.776 66.25 106.409 66.0753 105.915 65.9602L104.278 65.5767C103.379 65.3636 102.719 65.0334 102.297 64.5859C101.879 64.1342 101.67 63.5696 101.67 62.892C101.67 62.3381 101.826 61.848 102.137 61.4219C102.452 60.9957 102.881 60.6612 103.422 60.4183C103.967 60.1754 104.585 60.054 105.276 60.054C106.247 60.054 107.01 60.267 107.564 60.6932C108.122 61.1193 108.519 61.6818 108.753 62.3807ZM117.39 65.9858V60.1818H118.899V70H117.39V68.3381H117.288C117.058 68.8366 116.7 69.2607 116.214 69.6101C115.728 69.9553 115.115 70.1278 114.373 70.1278C113.759 70.1278 113.214 69.9936 112.737 69.7251C112.259 69.4524 111.884 69.0433 111.612 68.4979C111.339 67.9482 111.203 67.2557 111.203 66.4205V60.1818H112.711V66.3182C112.711 67.0341 112.911 67.6051 113.312 68.0312C113.717 68.4574 114.232 68.6705 114.859 68.6705C115.234 68.6705 115.615 68.5746 116.003 68.3828C116.395 68.1911 116.723 67.897 116.987 67.5007C117.256 67.1044 117.39 66.5994 117.39 65.9858ZM125.65 70.2045C124.73 70.2045 123.937 69.9872 123.272 69.5526C122.608 69.1179 122.096 68.5192 121.738 67.7564C121.38 66.9936 121.201 66.1222 121.201 65.142C121.201 64.1449 121.385 63.2649 121.751 62.5021C122.122 61.7351 122.637 61.1364 123.298 60.706C123.963 60.2713 124.738 60.054 125.625 60.054C126.315 60.054 126.937 60.1818 127.491 60.4375C128.045 60.6932 128.499 61.0511 128.853 61.5114C129.206 61.9716 129.426 62.5085 129.511 63.1222H128.003C127.887 62.6747 127.632 62.2784 127.235 61.9332C126.843 61.5838 126.315 61.4091 125.65 61.4091C125.062 61.4091 124.547 61.5625 124.103 61.8693C123.664 62.1719 123.321 62.6001 123.074 63.1541C122.831 63.7038 122.71 64.3494 122.71 65.0909C122.71 65.8494 122.829 66.5099 123.068 67.0724C123.311 67.6349 123.652 68.0717 124.091 68.3828C124.534 68.6939 125.054 68.8494 125.65 68.8494C126.042 68.8494 126.398 68.7812 126.718 68.6449C127.037 68.5085 127.308 68.3125 127.53 68.0568C127.751 67.8011 127.909 67.4943 128.003 67.1364H129.511C129.426 67.7159 129.215 68.2379 128.878 68.7024C128.546 69.1626 128.105 69.5291 127.555 69.8018C127.01 70.0703 126.375 70.2045 125.65 70.2045ZM135.705 70.2045C134.784 70.2045 133.992 69.9872 133.327 69.5526C132.662 69.1179 132.151 68.5192 131.793 67.7564C131.435 66.9936 131.256 66.1222 131.256 65.142C131.256 64.1449 131.439 63.2649 131.806 62.5021C132.177 61.7351 132.692 61.1364 133.353 60.706C134.017 60.2713 134.793 60.054 135.679 60.054C136.37 60.054 136.992 60.1818 137.546 60.4375C138.1 60.6932 138.554 61.0511 138.907 61.5114C139.261 61.9716 139.481 62.5085 139.566 63.1222H138.057C137.942 62.6747 137.686 62.2784 137.29 61.9332C136.898 61.5838 136.37 61.4091 135.705 61.4091C135.117 61.4091 134.601 61.5625 134.158 61.8693C133.719 62.1719 133.376 62.6001 133.129 63.1541C132.886 63.7038 132.765 64.3494 132.765 65.0909C132.765 65.8494 132.884 66.5099 133.123 67.0724C133.365 67.6349 133.706 68.0717 134.145 68.3828C134.588 68.6939 135.108 68.8494 135.705 68.8494C136.097 68.8494 136.453 68.7812 136.772 68.6449C137.092 68.5085 137.363 68.3125 137.584 68.0568C137.806 67.8011 137.963 67.4943 138.057 67.1364H139.566C139.481 67.7159 139.27 68.2379 138.933 68.7024C138.601 69.1626 138.159 69.5291 137.61 69.8018C137.064 70.0703 136.429 70.2045 135.705 70.2045ZM145.887 70.2045C144.941 70.2045 144.125 69.9957 143.439 69.5781C142.757 69.1562 142.231 68.5682 141.86 67.8139C141.494 67.0554 141.311 66.1733 141.311 65.1676C141.311 64.1619 141.494 63.2756 141.86 62.5085C142.231 61.7372 142.747 61.1364 143.407 60.706C144.072 60.2713 144.848 60.054 145.734 60.054C146.245 60.054 146.75 60.1392 147.249 60.3097C147.748 60.4801 148.201 60.7571 148.61 61.1406C149.02 61.5199 149.346 62.0227 149.588 62.6491C149.831 63.2756 149.953 64.0469 149.953 64.9631V65.6023H142.385V64.2983H148.419C148.419 63.7443 148.308 63.25 148.086 62.8153C147.869 62.3807 147.558 62.0376 147.153 61.7862C146.753 61.5348 146.28 61.4091 145.734 61.4091C145.133 61.4091 144.613 61.5582 144.174 61.8565C143.74 62.1506 143.405 62.5341 143.171 63.0071C142.936 63.4801 142.819 63.9872 142.819 64.5284V65.3977C142.819 66.1392 142.947 66.7678 143.203 67.2834C143.463 67.7947 143.823 68.1847 144.283 68.4531C144.743 68.7173 145.278 68.8494 145.887 68.8494C146.284 68.8494 146.642 68.794 146.961 68.6832C147.285 68.5682 147.564 68.3977 147.799 68.1719C148.033 67.9418 148.214 67.6562 148.342 67.3153L149.799 67.7244C149.646 68.2188 149.388 68.6534 149.026 69.0284C148.664 69.3991 148.216 69.6889 147.684 69.8977C147.151 70.1023 146.552 70.2045 145.887 70.2045ZM159.202 62.3807L157.847 62.7642C157.762 62.5384 157.636 62.3189 157.47 62.1058C157.308 61.8885 157.086 61.7095 156.805 61.5689C156.524 61.4283 156.164 61.358 155.725 61.358C155.124 61.358 154.623 61.4964 154.223 61.7734C153.826 62.0462 153.628 62.3935 153.628 62.8153C153.628 63.1903 153.765 63.4865 154.037 63.7038C154.31 63.9212 154.736 64.1023 155.316 64.2472L156.773 64.6051C157.651 64.8182 158.305 65.1442 158.735 65.5831C159.166 66.0178 159.381 66.5781 159.381 67.2642C159.381 67.8267 159.219 68.3295 158.895 68.7727C158.576 69.2159 158.128 69.5653 157.553 69.821C156.978 70.0767 156.309 70.2045 155.546 70.2045C154.544 70.2045 153.716 69.9872 153.059 69.5526C152.403 69.1179 151.988 68.483 151.813 67.6477L153.245 67.2898C153.381 67.8182 153.639 68.2145 154.018 68.4787C154.402 68.7429 154.902 68.875 155.52 68.875C156.223 68.875 156.782 68.7259 157.195 68.4276C157.613 68.125 157.821 67.7628 157.821 67.3409C157.821 67 157.702 66.7145 157.463 66.4844C157.225 66.25 156.858 66.0753 156.364 65.9602L154.728 65.5767C153.829 65.3636 153.168 65.0334 152.746 64.5859C152.329 64.1342 152.12 63.5696 152.12 62.892C152.12 62.3381 152.275 61.848 152.586 61.4219C152.902 60.9957 153.33 60.6612 153.871 60.4183C154.417 60.1754 155.034 60.054 155.725 60.054C156.696 60.054 157.459 60.267 158.013 60.6932C158.571 61.1193 158.968 61.6818 159.202 62.3807ZM168.606 62.3807L167.251 62.7642C167.166 62.5384 167.04 62.3189 166.874 62.1058C166.712 61.8885 166.491 61.7095 166.209 61.5689C165.928 61.4283 165.568 61.358 165.129 61.358C164.528 61.358 164.028 61.4964 163.627 61.7734C163.231 62.0462 163.033 62.3935 163.033 62.8153C163.033 63.1903 163.169 63.4865 163.442 63.7038C163.714 63.9212 164.14 64.1023 164.72 64.2472L166.177 64.6051C167.055 64.8182 167.709 65.1442 168.14 65.5831C168.57 66.0178 168.785 66.5781 168.785 67.2642C168.785 67.8267 168.623 68.3295 168.3 68.7727C167.98 69.2159 167.533 69.5653 166.957 69.821C166.382 70.0767 165.713 70.2045 164.95 70.2045C163.949 70.2045 163.12 69.9872 162.464 69.5526C161.807 69.1179 161.392 68.483 161.217 67.6477L162.649 67.2898C162.785 67.8182 163.043 68.2145 163.422 68.4787C163.806 68.7429 164.307 68.875 164.925 68.875C165.628 68.875 166.186 68.7259 166.599 68.4276C167.017 68.125 167.226 67.7628 167.226 67.3409C167.226 67 167.106 66.7145 166.868 66.4844C166.629 66.25 166.263 66.0753 165.768 65.9602L164.132 65.5767C163.233 65.3636 162.572 65.0334 162.15 64.5859C161.733 64.1342 161.524 63.5696 161.524 62.892C161.524 62.3381 161.68 61.848 161.991 61.4219C162.306 60.9957 162.734 60.6612 163.275 60.4183C163.821 60.1754 164.439 60.054 165.129 60.054C166.101 60.054 166.863 60.267 167.417 60.6932C167.976 61.1193 168.372 61.6818 168.606 62.3807ZM175.428 60.1818V61.4602H170.136V60.1818H175.428ZM171.721 70V58.8267C171.721 58.2642 171.853 57.7955 172.117 57.4205C172.381 57.0455 172.724 56.7642 173.146 56.5767C173.568 56.3892 174.014 56.2955 174.482 56.2955C174.853 56.2955 175.156 56.3253 175.39 56.3849C175.624 56.4446 175.799 56.5 175.914 56.5511L175.479 57.8551C175.403 57.8295 175.296 57.7976 175.16 57.7592C175.028 57.7209 174.853 57.7017 174.636 57.7017C174.137 57.7017 173.777 57.8274 173.555 58.0788C173.338 58.3303 173.229 58.6989 173.229 59.1847V70H171.721ZM183.73 65.9858V60.1818H185.238V70H183.73V68.3381H183.628C183.398 68.8366 183.04 69.2607 182.554 69.6101C182.068 69.9553 181.454 70.1278 180.713 70.1278C180.099 70.1278 179.554 69.9936 179.077 69.7251C178.599 69.4524 178.224 69.0433 177.952 68.4979C177.679 67.9482 177.542 67.2557 177.542 66.4205V60.1818H179.051V66.3182C179.051 67.0341 179.251 67.6051 179.652 68.0312C180.057 68.4574 180.572 68.6705 181.199 68.6705C181.574 68.6705 181.955 68.5746 182.343 68.3828C182.735 68.1911 183.063 67.897 183.327 67.5007C183.596 67.1044 183.73 66.5994 183.73 65.9858ZM189.51 56.9091V70H188.001V56.9091H189.51ZM197.54 70V56.9091H199.049V61.7415H199.176C199.287 61.571 199.441 61.3537 199.637 61.0895C199.837 60.821 200.122 60.5824 200.493 60.3736C200.868 60.1605 201.375 60.054 202.014 60.054C202.841 60.054 203.57 60.2607 204.2 60.674C204.831 61.0874 205.323 61.6733 205.677 62.4318C206.031 63.1903 206.208 64.0852 206.208 65.1165C206.208 66.1562 206.031 67.0575 205.677 67.8203C205.323 68.5788 204.833 69.1669 204.207 69.5845C203.58 69.9979 202.858 70.2045 202.04 70.2045C201.409 70.2045 200.904 70.1001 200.525 69.8913C200.146 69.6783 199.854 69.4375 199.649 69.169C199.445 68.8963 199.287 68.6705 199.176 68.4915H198.997V70H197.54ZM199.023 65.0909C199.023 65.8324 199.132 66.4865 199.349 67.0533C199.566 67.6158 199.884 68.0568 200.301 68.3764C200.719 68.6918 201.23 68.8494 201.835 68.8494C202.466 68.8494 202.992 68.6832 203.414 68.3509C203.84 68.0142 204.16 67.5625 204.373 66.9957C204.59 66.4247 204.699 65.7898 204.699 65.0909C204.699 64.4006 204.593 63.7784 204.379 63.2244C204.171 62.6662 203.853 62.2251 203.427 61.9013C203.005 61.5732 202.475 61.4091 201.835 61.4091C201.222 61.4091 200.706 61.5646 200.289 61.8757C199.871 62.1825 199.556 62.6129 199.343 63.1669C199.129 63.7166 199.023 64.358 199.023 65.0909ZM214.703 65.9858V60.1818H216.211V70H214.703V68.3381H214.6C214.37 68.8366 214.012 69.2607 213.526 69.6101C213.041 69.9553 212.427 70.1278 211.686 70.1278C211.072 70.1278 210.526 69.9936 210.049 69.7251C209.572 69.4524 209.197 69.0433 208.924 68.4979C208.651 67.9482 208.515 67.2557 208.515 66.4205V60.1818H210.024V66.3182C210.024 67.0341 210.224 67.6051 210.625 68.0312C211.029 68.4574 211.545 68.6705 212.171 68.6705C212.546 68.6705 212.928 68.5746 213.316 68.3828C213.708 68.1911 214.036 67.897 214.3 67.5007C214.568 67.1044 214.703 66.5994 214.703 65.9858ZM225.929 62.3807L224.574 62.7642C224.488 62.5384 224.363 62.3189 224.196 62.1058C224.034 61.8885 223.813 61.7095 223.532 61.5689C223.25 61.4283 222.89 61.358 222.451 61.358C221.851 61.358 221.35 61.4964 220.949 61.7734C220.553 62.0462 220.355 62.3935 220.355 62.8153C220.355 63.1903 220.491 63.4865 220.764 63.7038C221.037 63.9212 221.463 64.1023 222.042 64.2472L223.5 64.6051C224.378 64.8182 225.032 65.1442 225.462 65.5831C225.892 66.0178 226.108 66.5781 226.108 67.2642C226.108 67.8267 225.946 68.3295 225.622 68.7727C225.302 69.2159 224.855 69.5653 224.28 69.821C223.704 70.0767 223.035 70.2045 222.272 70.2045C221.271 70.2045 220.442 69.9872 219.786 69.5526C219.13 69.1179 218.714 68.483 218.539 67.6477L219.971 67.2898C220.108 67.8182 220.365 68.2145 220.745 68.4787C221.128 68.7429 221.629 68.875 222.247 68.875C222.95 68.875 223.508 68.7259 223.922 68.4276C224.339 68.125 224.548 67.7628 224.548 67.3409C224.548 67 224.429 66.7145 224.19 66.4844C223.951 66.25 223.585 66.0753 223.091 65.9602L221.454 65.5767C220.555 65.3636 219.895 65.0334 219.473 64.5859C219.055 64.1342 218.846 63.5696 218.846 62.892C218.846 62.3381 219.002 61.848 219.313 61.4219C219.628 60.9957 220.056 60.6612 220.598 60.4183C221.143 60.1754 221.761 60.054 222.451 60.054C223.423 60.054 224.186 60.267 224.74 60.6932C225.298 61.1193 225.694 61.6818 225.929 62.3807ZM228.378 70V60.1818H229.887V70H228.378ZM229.145 58.5455C228.851 58.5455 228.598 58.4453 228.385 58.245C228.176 58.0447 228.072 57.804 228.072 57.5227C228.072 57.2415 228.176 57.0007 228.385 56.8004C228.598 56.6001 228.851 56.5 229.145 56.5C229.439 56.5 229.691 56.6001 229.9 56.8004C230.113 57.0007 230.219 57.2415 230.219 57.5227C230.219 57.804 230.113 58.0447 229.9 58.245C229.691 58.4453 229.439 58.5455 229.145 58.5455ZM234.158 64.0938V70H232.65V60.1818H234.107V61.7159H234.235C234.465 61.2173 234.815 60.8168 235.283 60.5142C235.752 60.2074 236.357 60.054 237.099 60.054C237.764 60.054 238.345 60.1903 238.844 60.4631C239.342 60.7315 239.73 61.1406 240.007 61.6903C240.284 62.2358 240.423 62.9261 240.423 63.7614V70H238.914V63.8636C238.914 63.0923 238.714 62.4915 238.313 62.0611C237.913 61.6264 237.363 61.4091 236.664 61.4091C236.183 61.4091 235.752 61.5135 235.373 61.7223C234.998 61.9311 234.702 62.2358 234.484 62.6364C234.267 63.0369 234.158 63.5227 234.158 64.0938ZM247.296 70.2045C246.35 70.2045 245.534 69.9957 244.848 69.5781C244.166 69.1562 243.639 68.5682 243.269 67.8139C242.902 67.0554 242.719 66.1733 242.719 65.1676C242.719 64.1619 242.902 63.2756 243.269 62.5085C243.639 61.7372 244.155 61.1364 244.816 60.706C245.48 60.2713 246.256 60.054 247.142 60.054C247.654 60.054 248.159 60.1392 248.657 60.3097C249.156 60.4801 249.61 60.7571 250.019 61.1406C250.428 61.5199 250.754 62.0227 250.997 62.6491C251.24 63.2756 251.361 64.0469 251.361 64.9631V65.6023H243.793V64.2983H249.827C249.827 63.7443 249.716 63.25 249.495 62.8153C249.277 62.3807 248.966 62.0376 248.561 61.7862C248.161 61.5348 247.688 61.4091 247.142 61.4091C246.541 61.4091 246.022 61.5582 245.583 61.8565C245.148 62.1506 244.813 62.5341 244.579 63.0071C244.345 63.4801 244.227 63.9872 244.227 64.5284V65.3977C244.227 66.1392 244.355 66.7678 244.611 67.2834C244.871 67.7947 245.231 68.1847 245.691 68.4531C246.151 68.7173 246.686 68.8494 247.296 68.8494C247.692 68.8494 248.05 68.794 248.37 68.6832C248.693 68.5682 248.973 68.3977 249.207 68.1719C249.441 67.9418 249.622 67.6562 249.75 67.3153L251.208 67.7244C251.054 68.2188 250.796 68.6534 250.434 69.0284C250.072 69.3991 249.625 69.6889 249.092 69.8977C248.559 70.1023 247.96 70.2045 247.296 70.2045ZM260.61 62.3807L259.255 62.7642C259.17 62.5384 259.044 62.3189 258.878 62.1058C258.716 61.8885 258.495 61.7095 258.213 61.5689C257.932 61.4283 257.572 61.358 257.133 61.358C256.532 61.358 256.031 61.4964 255.631 61.7734C255.235 62.0462 255.036 62.3935 255.036 62.8153C255.036 63.1903 255.173 63.4865 255.446 63.7038C255.718 63.9212 256.144 64.1023 256.724 64.2472L258.181 64.6051C259.059 64.8182 259.713 65.1442 260.144 65.5831C260.574 66.0178 260.789 66.5781 260.789 67.2642C260.789 67.8267 260.627 68.3295 260.303 68.7727C259.984 69.2159 259.536 69.5653 258.961 69.821C258.386 70.0767 257.717 70.2045 256.954 70.2045C255.953 70.2045 255.124 69.9872 254.468 69.5526C253.811 69.1179 253.396 68.483 253.221 67.6477L254.653 67.2898C254.789 67.8182 255.047 68.2145 255.426 68.4787C255.81 68.7429 256.311 68.875 256.928 68.875C257.632 68.875 258.19 68.7259 258.603 68.4276C259.021 68.125 259.23 67.7628 259.23 67.3409C259.23 67 259.11 66.7145 258.872 66.4844C258.633 66.25 258.267 66.0753 257.772 65.9602L256.136 65.5767C255.237 65.3636 254.576 65.0334 254.154 64.5859C253.737 64.1342 253.528 63.5696 253.528 62.892C253.528 62.3381 253.683 61.848 253.995 61.4219C254.31 60.9957 254.738 60.6612 255.279 60.4183C255.825 60.1754 256.443 60.054 257.133 60.054C258.105 60.054 258.867 60.267 259.421 60.6932C259.98 61.1193 260.376 61.6818 260.61 62.3807ZM270.015 62.3807L268.659 62.7642C268.574 62.5384 268.449 62.3189 268.282 62.1058C268.12 61.8885 267.899 61.7095 267.618 61.5689C267.336 61.4283 266.976 61.358 266.537 61.358C265.936 61.358 265.436 61.4964 265.035 61.7734C264.639 62.0462 264.441 62.3935 264.441 62.8153C264.441 63.1903 264.577 63.4865 264.85 63.7038C265.123 63.9212 265.549 64.1023 266.128 64.2472L267.586 64.6051C268.463 64.8182 269.118 65.1442 269.548 65.5831C269.978 66.0178 270.194 66.5781 270.194 67.2642C270.194 67.8267 270.032 68.3295 269.708 68.7727C269.388 69.2159 268.941 69.5653 268.365 69.821C267.79 70.0767 267.121 70.2045 266.358 70.2045C265.357 70.2045 264.528 69.9872 263.872 69.5526C263.216 69.1179 262.8 68.483 262.625 67.6477L264.057 67.2898C264.194 67.8182 264.451 68.2145 264.831 68.4787C265.214 68.7429 265.715 68.875 266.333 68.875C267.036 68.875 267.594 68.7259 268.007 68.4276C268.425 68.125 268.634 67.7628 268.634 67.3409C268.634 67 268.515 66.7145 268.276 66.4844C268.037 66.25 267.671 66.0753 267.177 65.9602L265.54 65.5767C264.641 65.3636 263.981 65.0334 263.559 64.5859C263.141 64.1342 262.932 63.5696 262.932 62.892C262.932 62.3381 263.088 61.848 263.399 61.4219C263.714 60.9957 264.142 60.6612 264.684 60.4183C265.229 60.1754 265.847 60.054 266.537 60.054C267.509 60.054 268.272 60.267 268.826 60.6932C269.384 61.1193 269.78 61.6818 270.015 62.3807ZM279.751 70L276.76 60.1818H278.345L280.467 67.6989H280.569L282.666 60.1818H284.277L286.348 67.6733H286.45L288.572 60.1818H290.158L287.166 70H285.683L283.535 62.4574H283.382L281.234 70H279.751ZM292.152 70V60.1818H293.66V70H292.152ZM292.919 58.5455C292.625 58.5455 292.371 58.4453 292.158 58.245C291.949 58.0447 291.845 57.804 291.845 57.5227C291.845 57.2415 291.949 57.0007 292.158 56.8004C292.371 56.6001 292.625 56.5 292.919 56.5C293.213 56.5 293.464 56.6001 293.673 56.8004C293.886 57.0007 293.993 57.2415 293.993 57.5227C293.993 57.804 293.886 58.0447 293.673 58.245C293.464 58.4453 293.213 58.5455 292.919 58.5455ZM297.932 56.9091V70H296.423V56.9091H297.932ZM302.203 56.9091V70H300.695V56.9091H302.203ZM314.299 60.1818V61.4602H309.211V60.1818H314.299ZM310.694 57.8295H312.202V67.1875C312.202 67.6136 312.264 67.9332 312.387 68.1463C312.515 68.3551 312.677 68.4957 312.873 68.5682C313.074 68.6364 313.284 68.6705 313.506 68.6705C313.672 68.6705 313.809 68.6619 313.915 68.6449C314.022 68.6236 314.107 68.6065 314.171 68.5938L314.478 69.9489C314.375 69.9872 314.233 70.0256 314.049 70.0639C313.866 70.1065 313.634 70.1278 313.353 70.1278C312.927 70.1278 312.509 70.0362 312.1 69.853C311.695 69.6697 311.358 69.3906 311.09 69.0156C310.826 68.6406 310.694 68.1676 310.694 67.5966V57.8295ZM320.579 70.2045C319.633 70.2045 318.817 69.9957 318.131 69.5781C317.449 69.1562 316.923 68.5682 316.552 67.8139C316.185 67.0554 316.002 66.1733 316.002 65.1676C316.002 64.1619 316.185 63.2756 316.552 62.5085C316.923 61.7372 317.438 61.1364 318.099 60.706C318.764 60.2713 319.539 60.054 320.425 60.054C320.937 60.054 321.442 60.1392 321.94 60.3097C322.439 60.4801 322.893 60.7571 323.302 61.1406C323.711 61.5199 324.037 62.0227 324.28 62.6491C324.523 63.2756 324.644 64.0469 324.644 64.9631V65.6023H317.076V64.2983H323.11C323.11 63.7443 322.999 63.25 322.778 62.8153C322.56 62.3807 322.249 62.0376 321.845 61.7862C321.444 61.5348 320.971 61.4091 320.425 61.4091C319.825 61.4091 319.305 61.5582 318.866 61.8565C318.431 62.1506 318.097 62.5341 317.862 63.0071C317.628 63.4801 317.511 63.9872 317.511 64.5284V65.3977C317.511 66.1392 317.639 66.7678 317.894 67.2834C318.154 67.7947 318.514 68.1847 318.974 68.4531C319.435 68.7173 319.97 68.8494 320.579 68.8494C320.975 68.8494 321.333 68.794 321.653 68.6832C321.977 68.5682 322.256 68.3977 322.49 68.1719C322.724 67.9418 322.906 67.6562 323.033 67.3153L324.491 67.7244C324.337 68.2188 324.08 68.6534 323.717 69.0284C323.355 69.3991 322.908 69.6889 322.375 69.8977C321.842 70.1023 321.244 70.2045 320.579 70.2045ZM328.447 56.9091V70H326.939V56.9091H328.447ZM332.719 56.9091V70H331.21V56.9091H332.719ZM341.516 73.6818C341.26 73.6818 341.032 73.6605 340.832 73.6179C340.632 73.5795 340.493 73.5412 340.417 73.5028L340.8 72.1733C341.167 72.267 341.49 72.3011 341.772 72.2756C342.053 72.25 342.302 72.1243 342.52 71.8984C342.741 71.6768 342.944 71.3168 343.127 70.8182L343.408 70.0511L339.777 60.1818H341.414L344.124 68.0057H344.226L346.936 60.1818H348.573L344.405 71.4318C344.218 71.9389 343.985 72.3587 343.709 72.6911C343.432 73.0277 343.11 73.277 342.743 73.4389C342.381 73.6009 341.972 73.6818 341.516 73.6818ZM354.201 70.2045C353.315 70.2045 352.537 69.9936 351.868 69.5717C351.203 69.1499 350.683 68.5597 350.308 67.8011C349.938 67.0426 349.752 66.1562 349.752 65.142C349.752 64.1193 349.938 63.2266 350.308 62.4638C350.683 61.701 351.203 61.1087 351.868 60.6868C352.537 60.2649 353.315 60.054 354.201 60.054C355.087 60.054 355.863 60.2649 356.528 60.6868C357.197 61.1087 357.717 61.701 358.087 62.4638C358.462 63.2266 358.65 64.1193 358.65 65.142C358.65 66.1562 358.462 67.0426 358.087 67.8011C357.717 68.5597 357.197 69.1499 356.528 69.5717C355.863 69.9936 355.087 70.2045 354.201 70.2045ZM354.201 68.8494C354.874 68.8494 355.428 68.6768 355.863 68.3317C356.298 67.9865 356.619 67.5327 356.828 66.9702C357.037 66.4077 357.141 65.7983 357.141 65.142C357.141 64.4858 357.037 63.8743 356.828 63.3075C356.619 62.7408 356.298 62.2827 355.863 61.9332C355.428 61.5838 354.874 61.4091 354.201 61.4091C353.528 61.4091 352.974 61.5838 352.539 61.9332C352.104 62.2827 351.783 62.7408 351.574 63.3075C351.365 63.8743 351.261 64.4858 351.261 65.142C351.261 65.7983 351.365 66.4077 351.574 66.9702C351.783 67.5327 352.104 67.9865 352.539 68.3317C352.974 68.6768 353.528 68.8494 354.201 68.8494ZM367.14 65.9858V60.1818H368.649V70H367.14V68.3381H367.038C366.808 68.8366 366.45 69.2607 365.964 69.6101C365.478 69.9553 364.865 70.1278 364.123 70.1278C363.509 70.1278 362.964 69.9936 362.487 69.7251C362.009 69.4524 361.634 69.0433 361.362 68.4979C361.089 67.9482 360.953 67.2557 360.953 66.4205V60.1818H362.461V66.3182C362.461 67.0341 362.661 67.6051 363.062 68.0312C363.467 68.4574 363.982 68.6705 364.609 68.6705C364.984 68.6705 365.365 68.5746 365.753 68.3828C366.145 68.1911 366.473 67.897 366.737 67.5007C367.006 67.1044 367.14 66.5994 367.14 65.9858ZM380.744 60.1818V61.4602H375.656V60.1818H380.744ZM377.139 57.8295H378.647V67.1875C378.647 67.6136 378.709 67.9332 378.833 68.1463C378.961 68.3551 379.123 68.4957 379.319 68.5682C379.519 68.6364 379.73 68.6705 379.951 68.6705C380.118 68.6705 380.254 68.6619 380.36 68.6449C380.467 68.6236 380.552 68.6065 380.616 68.5938L380.923 69.9489C380.821 69.9872 380.678 70.0256 380.495 70.0639C380.311 70.1065 380.079 70.1278 379.798 70.1278C379.372 70.1278 378.954 70.0362 378.545 69.853C378.14 69.6697 377.804 69.3906 377.535 69.0156C377.271 68.6406 377.139 68.1676 377.139 67.5966V57.8295ZM384.733 64.0938V70H383.224V56.9091H384.733V61.7159H384.86C385.091 61.2088 385.436 60.8061 385.896 60.5078C386.36 60.2053 386.978 60.054 387.75 60.054C388.419 60.054 389.005 60.1882 389.508 60.4567C390.01 60.7209 390.4 61.1278 390.677 61.6776C390.959 62.223 391.099 62.9176 391.099 63.7614V70H389.591V63.8636C389.591 63.0838 389.388 62.4808 388.983 62.0547C388.583 61.6243 388.027 61.4091 387.315 61.4091C386.821 61.4091 386.378 61.5135 385.985 61.7223C385.598 61.9311 385.291 62.2358 385.065 62.6364C384.843 63.0369 384.733 63.5227 384.733 64.0938ZM397.975 70.2045C397.029 70.2045 396.213 69.9957 395.527 69.5781C394.845 69.1562 394.319 68.5682 393.948 67.8139C393.582 67.0554 393.399 66.1733 393.399 65.1676C393.399 64.1619 393.582 63.2756 393.948 62.5085C394.319 61.7372 394.835 61.1364 395.495 60.706C396.16 60.2713 396.936 60.054 397.822 60.054C398.333 60.054 398.838 60.1392 399.337 60.3097C399.835 60.4801 400.289 60.7571 400.698 61.1406C401.107 61.5199 401.433 62.0227 401.676 62.6491C401.919 63.2756 402.041 64.0469 402.041 64.9631V65.6023H394.473V64.2983H400.507C400.507 63.7443 400.396 63.25 400.174 62.8153C399.957 62.3807 399.646 62.0376 399.241 61.7862C398.84 61.5348 398.367 61.4091 397.822 61.4091C397.221 61.4091 396.701 61.5582 396.262 61.8565C395.828 62.1506 395.493 62.5341 395.259 63.0071C395.024 63.4801 394.907 63.9872 394.907 64.5284V65.3977C394.907 66.1392 395.035 66.7678 395.291 67.2834C395.551 67.7947 395.911 68.1847 396.371 68.4531C396.831 68.7173 397.366 68.8494 397.975 68.8494C398.372 68.8494 398.73 68.794 399.049 68.6832C399.373 68.5682 399.652 68.3977 399.887 68.1719C400.121 67.9418 400.302 67.6562 400.43 67.3153L401.887 67.7244C401.734 68.2188 401.476 68.6534 401.114 69.0284C400.752 69.3991 400.304 69.6889 399.772 69.8977C399.239 70.1023 398.64 70.2045 397.975 70.2045ZM405.008 73.6818C404.753 73.6818 404.525 73.6605 404.324 73.6179C404.124 73.5795 403.985 73.5412 403.909 73.5028L404.292 72.1733C404.659 72.267 404.983 72.3011 405.264 72.2756C405.545 72.25 405.794 72.1243 406.012 71.8984C406.233 71.6768 406.436 71.3168 406.619 70.8182L406.9 70.0511L403.27 60.1818H404.906L407.616 68.0057H407.718L410.429 60.1818H412.065L407.897 71.4318C407.71 71.9389 407.478 72.3587 407.201 72.6911C406.924 73.0277 406.602 73.277 406.235 73.4389C405.873 73.6009 405.464 73.6818 405.008 73.6818ZM66.7372 97.2045C65.8167 97.2045 65.0241 96.9872 64.3593 96.5526C63.6945 96.1179 63.1832 95.5192 62.8252 94.7564C62.4673 93.9936 62.2883 93.1222 62.2883 92.142C62.2883 91.1449 62.4715 90.2649 62.838 89.5021C63.2088 88.7351 63.7244 88.1364 64.3849 87.706C65.0497 87.2713 65.8252 87.054 66.7116 87.054C67.4019 87.054 68.0241 87.1818 68.5781 87.4375C69.132 87.6932 69.5859 88.0511 69.9396 88.5114C70.2933 88.9716 70.5127 89.5085 70.598 90.1222H69.0894C68.9744 89.6747 68.7187 89.2784 68.3224 88.9332C67.9303 88.5838 67.4019 88.4091 66.7372 88.4091C66.1491 88.4091 65.6335 88.5625 65.1903 88.8693C64.7514 89.1719 64.4083 89.6001 64.1612 90.1541C63.9183 90.7038 63.7968 91.3494 63.7968 92.0909C63.7968 92.8494 63.9161 93.5099 64.1548 94.0724C64.3977 94.6349 64.7386 95.0717 65.1775 95.3828C65.6207 95.6939 66.1406 95.8494 66.7372 95.8494C67.1292 95.8494 67.485 95.7812 67.8046 95.6449C68.1242 95.5085 68.3948 95.3125 68.6164 95.0568C68.838 94.8011 68.9957 94.4943 69.0894 94.1364H70.598C70.5127 94.7159 70.3018 95.2379 69.9651 95.7024C69.6328 96.1626 69.1917 96.5291 68.642 96.8018C68.0965 97.0703 67.4616 97.2045 66.7372 97.2045ZM76.7918 97.2045C75.9055 97.2045 75.1278 96.9936 74.4588 96.5717C73.794 96.1499 73.2741 95.5597 72.8991 94.8011C72.5284 94.0426 72.343 93.1562 72.343 92.142C72.343 91.1193 72.5284 90.2266 72.8991 89.4638C73.2741 88.701 73.794 88.1087 74.4588 87.6868C75.1278 87.2649 75.9055 87.054 76.7918 87.054C77.6782 87.054 78.4538 87.2649 79.1186 87.6868C79.7876 88.1087 80.3075 88.701 80.6782 89.4638C81.0532 90.2266 81.2407 91.1193 81.2407 92.142C81.2407 93.1562 81.0532 94.0426 80.6782 94.8011C80.3075 95.5597 79.7876 96.1499 79.1186 96.5717C78.4538 96.9936 77.6782 97.2045 76.7918 97.2045ZM76.7918 95.8494C77.4651 95.8494 78.0191 95.6768 78.4538 95.3317C78.8884 94.9865 79.2102 94.5327 79.419 93.9702C79.6278 93.4077 79.7322 92.7983 79.7322 92.142C79.7322 91.4858 79.6278 90.8743 79.419 90.3075C79.2102 89.7408 78.8884 89.2827 78.4538 88.9332C78.0191 88.5838 77.4651 88.4091 76.7918 88.4091C76.1186 88.4091 75.5646 88.5838 75.1299 88.9332C74.6953 89.2827 74.3735 89.7408 74.1647 90.3075C73.9559 90.8743 73.8515 91.4858 73.8515 92.142C73.8515 92.7983 73.9559 93.4077 74.1647 93.9702C74.3735 94.5327 74.6953 94.9865 75.1299 95.3317C75.5646 95.6768 76.1186 95.8494 76.7918 95.8494ZM89.7309 92.9858V87.1818H91.2395V97H89.7309V95.3381H89.6287C89.3986 95.8366 89.0406 96.2607 88.5548 96.6101C88.069 96.9553 87.4554 97.1278 86.7139 97.1278C86.1003 97.1278 85.5548 96.9936 85.0775 96.7251C84.6003 96.4524 84.2253 96.0433 83.9525 95.4979C83.6798 94.9482 83.5434 94.2557 83.5434 93.4205V87.1818H85.052V93.3182C85.052 94.0341 85.2523 94.6051 85.6528 95.0312C86.0577 95.4574 86.5733 95.6705 87.1997 95.6705C87.5747 95.6705 87.9561 95.5746 88.3439 95.3828C88.7359 95.1911 89.064 94.897 89.3282 94.5007C89.5967 94.1044 89.7309 93.5994 89.7309 92.9858ZM95.511 83.9091V97H94.0024V83.9091H95.511ZM101.981 97.2045C101.163 97.2045 100.441 96.9979 99.8144 96.5845C99.188 96.1669 98.6979 95.5788 98.3442 94.8203C97.9905 94.0575 97.8137 93.1562 97.8137 92.1165C97.8137 91.0852 97.9905 90.1903 98.3442 89.4318C98.6979 88.6733 99.1901 88.0874 99.8208 87.674C100.451 87.2607 101.18 87.054 102.007 87.054C102.646 87.054 103.151 87.1605 103.522 87.3736C103.897 87.5824 104.182 87.821 104.378 88.0895C104.579 88.3537 104.734 88.571 104.845 88.7415H104.973V83.9091H106.481V97H105.024V95.4915H104.845C104.734 95.6705 104.576 95.8963 104.372 96.169C104.167 96.4375 103.875 96.6783 103.496 96.8913C103.117 97.1001 102.612 97.2045 101.981 97.2045ZM102.186 95.8494C102.791 95.8494 103.302 95.6918 103.72 95.3764C104.138 95.0568 104.455 94.6158 104.672 94.0533C104.89 93.4865 104.998 92.8324 104.998 92.0909C104.998 91.358 104.892 90.7166 104.679 90.1669C104.466 89.6129 104.15 89.1825 103.733 88.8757C103.315 88.5646 102.799 88.4091 102.186 88.4091C101.547 88.4091 101.014 88.5732 100.588 88.9013C100.166 89.2251 99.8485 89.6662 99.6354 90.2244C99.4266 90.7784 99.3222 91.4006 99.3222 92.0909C99.3222 92.7898 99.4287 93.4247 99.6418 93.9957C99.8591 94.5625 100.179 95.0142 100.601 95.3509C101.027 95.6832 101.555 95.8494 102.186 95.8494ZM116.025 91.0938V97H114.516V87.1818H115.973V88.7159H116.101C116.331 88.2173 116.681 87.8168 117.15 87.5142C117.618 87.2074 118.223 87.054 118.965 87.054C119.63 87.054 120.211 87.1903 120.71 87.4631C121.209 87.7315 121.596 88.1406 121.873 88.6903C122.15 89.2358 122.289 89.9261 122.289 90.7614V97H120.78V90.8636C120.78 90.0923 120.58 89.4915 120.179 89.0611C119.779 88.6264 119.229 88.4091 118.53 88.4091C118.049 88.4091 117.618 88.5135 117.239 88.7223C116.864 88.9311 116.568 89.2358 116.351 89.6364C116.133 90.0369 116.025 90.5227 116.025 91.0938ZM129.034 97.2045C128.148 97.2045 127.37 96.9936 126.701 96.5717C126.036 96.1499 125.516 95.5597 125.141 94.8011C124.771 94.0426 124.585 93.1562 124.585 92.142C124.585 91.1193 124.771 90.2266 125.141 89.4638C125.516 88.701 126.036 88.1087 126.701 87.6868C127.37 87.2649 128.148 87.054 129.034 87.054C129.92 87.054 130.696 87.2649 131.361 87.6868C132.03 88.1087 132.55 88.701 132.92 89.4638C133.295 90.2266 133.483 91.1193 133.483 92.142C133.483 93.1562 133.295 94.0426 132.92 94.8011C132.55 95.5597 132.03 96.1499 131.361 96.5717C130.696 96.9936 129.92 97.2045 129.034 97.2045ZM129.034 95.8494C129.707 95.8494 130.261 95.6768 130.696 95.3317C131.131 94.9865 131.452 94.5327 131.661 93.9702C131.87 93.4077 131.974 92.7983 131.974 92.142C131.974 91.4858 131.87 90.8743 131.661 90.3075C131.452 89.7408 131.131 89.2827 130.696 88.9332C130.261 88.5838 129.707 88.4091 129.034 88.4091C128.361 88.4091 127.807 88.5838 127.372 88.9332C126.937 89.2827 126.616 89.7408 126.407 90.3075C126.198 90.8743 126.094 91.4858 126.094 92.142C126.094 92.7983 126.198 93.4077 126.407 93.9702C126.616 94.5327 126.937 94.9865 127.372 95.3317C127.807 95.6768 128.361 95.8494 129.034 95.8494ZM140.056 87.1818V88.4602H134.967V87.1818H140.056ZM136.45 84.8295H137.959V94.1875C137.959 94.6136 138.021 94.9332 138.144 95.1463C138.272 95.3551 138.434 95.4957 138.63 95.5682C138.83 95.6364 139.041 95.6705 139.263 95.6705C139.429 95.6705 139.565 95.6619 139.672 95.6449C139.779 95.6236 139.864 95.6065 139.928 95.5938L140.234 96.9489C140.132 96.9872 139.989 97.0256 139.806 97.0639C139.623 97.1065 139.391 97.1278 139.109 97.1278C138.683 97.1278 138.266 97.0362 137.857 96.853C137.452 96.6697 137.115 96.3906 136.847 96.0156C136.583 95.6406 136.45 95.1676 136.45 94.5966V84.8295ZM148.896 91.0938V97H147.387V83.9091H148.896V88.7159H149.024C149.254 88.2088 149.599 87.8061 150.059 87.5078C150.524 87.2053 151.141 87.054 151.913 87.054C152.582 87.054 153.168 87.1882 153.671 87.4567C154.173 87.7209 154.563 88.1278 154.84 88.6776C155.122 89.223 155.262 89.9176 155.262 90.7614V97H153.754V90.8636C153.754 90.0838 153.551 89.4808 153.146 89.0547C152.746 88.6243 152.19 88.4091 151.478 88.4091C150.984 88.4091 150.541 88.5135 150.149 88.7223C149.761 88.9311 149.454 89.2358 149.228 89.6364C149.007 90.0369 148.896 90.5227 148.896 91.0938ZM160.911 97.2301C160.289 97.2301 159.724 97.1129 159.217 96.8786C158.71 96.6399 158.307 96.2969 158.009 95.8494C157.711 95.3977 157.562 94.8523 157.562 94.2131C157.562 93.6506 157.673 93.1946 157.894 92.8452C158.116 92.4915 158.412 92.2145 158.783 92.0142C159.153 91.8139 159.562 91.6648 160.01 91.5668C160.462 91.4645 160.915 91.3835 161.371 91.3239C161.968 91.2472 162.452 91.1896 162.822 91.1513C163.197 91.1087 163.47 91.0384 163.641 90.9403C163.815 90.8423 163.903 90.6719 163.903 90.429V90.3778C163.903 89.7472 163.73 89.2571 163.385 88.9077C163.044 88.5582 162.526 88.3835 161.832 88.3835C161.111 88.3835 160.547 88.5412 160.138 88.8565C159.729 89.1719 159.441 89.5085 159.275 89.8665L157.843 89.3551C158.099 88.7585 158.44 88.294 158.866 87.9616C159.296 87.625 159.765 87.3906 160.272 87.2585C160.783 87.1222 161.286 87.054 161.78 87.054C162.096 87.054 162.458 87.0923 162.867 87.169C163.28 87.2415 163.679 87.3928 164.062 87.6229C164.45 87.853 164.772 88.2003 165.028 88.6648C165.283 89.1293 165.411 89.7514 165.411 90.5312V97H163.903V95.6705H163.826C163.724 95.8835 163.553 96.1115 163.315 96.3544C163.076 96.5973 162.758 96.804 162.362 96.9744C161.966 97.1449 161.482 97.2301 160.911 97.2301ZM161.141 95.875C161.738 95.875 162.241 95.7578 162.65 95.5234C163.063 95.2891 163.374 94.9865 163.583 94.6158C163.796 94.245 163.903 93.8551 163.903 93.446V92.0653C163.839 92.142 163.698 92.2124 163.481 92.2763C163.268 92.3359 163.021 92.3892 162.739 92.4361C162.462 92.4787 162.192 92.517 161.928 92.5511C161.668 92.581 161.457 92.6065 161.295 92.6278C160.903 92.679 160.536 92.7621 160.195 92.8771C159.859 92.9879 159.586 93.1562 159.377 93.3821C159.173 93.6037 159.07 93.9062 159.07 94.2898C159.07 94.8139 159.264 95.2102 159.652 95.4787C160.044 95.7429 160.54 95.875 161.141 95.875ZM175.841 87.1818L172.211 97H170.677L167.046 87.1818H168.682L171.393 95.0057H171.495L174.205 87.1818H175.841ZM181.597 97.2045C180.651 97.2045 179.835 96.9957 179.149 96.5781C178.467 96.1562 177.941 95.5682 177.57 94.8139C177.204 94.0554 177.021 93.1733 177.021 92.1676C177.021 91.1619 177.204 90.2756 177.57 89.5085C177.941 88.7372 178.457 88.1364 179.117 87.706C179.782 87.2713 180.558 87.054 181.444 87.054C181.955 87.054 182.46 87.1392 182.959 87.3097C183.458 87.4801 183.911 87.7571 184.32 88.1406C184.73 88.5199 185.056 89.0227 185.298 89.6491C185.541 90.2756 185.663 91.0469 185.663 91.9631V92.6023H178.095V91.2983H184.129C184.129 90.7443 184.018 90.25 183.796 89.8153C183.579 89.3807 183.268 89.0376 182.863 88.7862C182.462 88.5348 181.989 88.4091 181.444 88.4091C180.843 88.4091 180.323 88.5582 179.884 88.8565C179.45 89.1506 179.115 89.5341 178.881 90.0071C178.646 90.4801 178.529 90.9872 178.529 91.5284V92.3977C178.529 93.1392 178.657 93.7678 178.913 94.2834C179.173 94.7947 179.533 95.1847 179.993 95.4531C180.453 95.7173 180.988 95.8494 181.597 95.8494C181.994 95.8494 182.352 95.794 182.671 95.6832C182.995 95.5682 183.274 95.3977 183.509 95.1719C183.743 94.9418 183.924 94.6562 184.052 94.3153L185.509 94.7244C185.356 95.2188 185.098 95.6534 184.736 96.0284C184.374 96.3991 183.926 96.6889 183.394 96.8977C182.861 97.1023 182.262 97.2045 181.597 97.2045ZM195.909 97.2301C195.287 97.2301 194.722 97.1129 194.215 96.8786C193.708 96.6399 193.306 96.2969 193.007 95.8494C192.709 95.3977 192.56 94.8523 192.56 94.2131C192.56 93.6506 192.671 93.1946 192.892 92.8452C193.114 92.4915 193.41 92.2145 193.781 92.0142C194.151 91.8139 194.56 91.6648 195.008 91.5668C195.46 91.4645 195.913 91.3835 196.369 91.3239C196.966 91.2472 197.45 91.1896 197.82 91.1513C198.195 91.1087 198.468 91.0384 198.639 90.9403C198.813 90.8423 198.901 90.6719 198.901 90.429V90.3778C198.901 89.7472 198.728 89.2571 198.383 88.9077C198.042 88.5582 197.524 88.3835 196.83 88.3835C196.109 88.3835 195.545 88.5412 195.136 88.8565C194.727 89.1719 194.439 89.5085 194.273 89.8665L192.841 89.3551C193.097 88.7585 193.438 88.294 193.864 87.9616C194.294 87.625 194.763 87.3906 195.27 87.2585C195.781 87.1222 196.284 87.054 196.779 87.054C197.094 87.054 197.456 87.0923 197.865 87.169C198.279 87.2415 198.677 87.3928 199.06 87.6229C199.448 87.853 199.77 88.2003 200.026 88.6648C200.281 89.1293 200.409 89.7514 200.409 90.5312V97H198.901V95.6705H198.824C198.722 95.8835 198.551 96.1115 198.313 96.3544C198.074 96.5973 197.757 96.804 197.36 96.9744C196.964 97.1449 196.48 97.2301 195.909 97.2301ZM196.139 95.875C196.736 95.875 197.239 95.7578 197.648 95.5234C198.061 95.2891 198.372 94.9865 198.581 94.6158C198.794 94.245 198.901 93.8551 198.901 93.446V92.0653C198.837 92.142 198.696 92.2124 198.479 92.2763C198.266 92.3359 198.019 92.3892 197.737 92.4361C197.46 92.4787 197.19 92.517 196.926 92.5511C196.666 92.581 196.455 92.6065 196.293 92.6278C195.901 92.679 195.534 92.7621 195.193 92.8771C194.857 92.9879 194.584 93.1562 194.375 93.3821C194.171 93.6037 194.068 93.9062 194.068 94.2898C194.068 94.8139 194.262 95.2102 194.65 95.4787C195.042 95.7429 195.538 95.875 196.139 95.875ZM207.151 97.2045C206.231 97.2045 205.438 96.9872 204.773 96.5526C204.109 96.1179 203.597 95.5192 203.239 94.7564C202.881 93.9936 202.702 93.1222 202.702 92.142C202.702 91.1449 202.886 90.2649 203.252 89.5021C203.623 88.7351 204.138 88.1364 204.799 87.706C205.464 87.2713 206.239 87.054 207.126 87.054C207.816 87.054 208.438 87.1818 208.992 87.4375C209.546 87.6932 210 88.0511 210.354 88.5114C210.707 88.9716 210.927 89.5085 211.012 90.1222H209.503C209.388 89.6747 209.133 89.2784 208.736 88.9332C208.344 88.5838 207.816 88.4091 207.151 88.4091C206.563 88.4091 206.048 88.5625 205.604 88.8693C205.165 89.1719 204.822 89.6001 204.575 90.1541C204.332 90.7038 204.211 91.3494 204.211 92.0909C204.211 92.8494 204.33 93.5099 204.569 94.0724C204.812 94.6349 205.153 95.0717 205.592 95.3828C206.035 95.6939 206.555 95.8494 207.151 95.8494C207.543 95.8494 207.899 95.7812 208.219 95.6449C208.538 95.5085 208.809 95.3125 209.03 95.0568C209.252 94.8011 209.41 94.4943 209.503 94.1364H211.012C210.927 94.7159 210.716 95.2379 210.379 95.7024C210.047 96.1626 209.606 96.5291 209.056 96.8018C208.511 97.0703 207.876 97.2045 207.151 97.2045ZM217.206 97.2045C216.285 97.2045 215.493 96.9872 214.828 96.5526C214.163 96.1179 213.652 95.5192 213.294 94.7564C212.936 93.9936 212.757 93.1222 212.757 92.142C212.757 91.1449 212.94 90.2649 213.307 89.5021C213.678 88.7351 214.193 88.1364 214.854 87.706C215.518 87.2713 216.294 87.054 217.18 87.054C217.871 87.054 218.493 87.1818 219.047 87.4375C219.601 87.6932 220.055 88.0511 220.408 88.5114C220.762 88.9716 220.981 89.5085 221.067 90.1222H219.558C219.443 89.6747 219.187 89.2784 218.791 88.9332C218.399 88.5838 217.871 88.4091 217.206 88.4091C216.618 88.4091 216.102 88.5625 215.659 88.8693C215.22 89.1719 214.877 89.6001 214.63 90.1541C214.387 90.7038 214.266 91.3494 214.266 92.0909C214.266 92.8494 214.385 93.5099 214.624 94.0724C214.866 94.6349 215.207 95.0717 215.646 95.3828C216.089 95.6939 216.609 95.8494 217.206 95.8494C217.598 95.8494 217.954 95.7812 218.273 95.6449C218.593 95.5085 218.864 95.3125 219.085 95.0568C219.307 94.8011 219.464 94.4943 219.558 94.1364H221.067C220.981 94.7159 220.771 95.2379 220.434 95.7024C220.102 96.1626 219.66 96.5291 219.111 96.8018C218.565 97.0703 217.93 97.2045 217.206 97.2045ZM227.261 97.2045C226.374 97.2045 225.597 96.9936 224.928 96.5717C224.263 96.1499 223.743 95.5597 223.368 94.8011C222.997 94.0426 222.812 93.1562 222.812 92.142C222.812 91.1193 222.997 90.2266 223.368 89.4638C223.743 88.701 224.263 88.1087 224.928 87.6868C225.597 87.2649 226.374 87.054 227.261 87.054C228.147 87.054 228.923 87.2649 229.587 87.6868C230.256 88.1087 230.776 88.701 231.147 89.4638C231.522 90.2266 231.709 91.1193 231.709 92.142C231.709 93.1562 231.522 94.0426 231.147 94.8011C230.776 95.5597 230.256 96.1499 229.587 96.5717C228.923 96.9936 228.147 97.2045 227.261 97.2045ZM227.261 95.8494C227.934 95.8494 228.488 95.6768 228.923 95.3317C229.357 94.9865 229.679 94.5327 229.888 93.9702C230.097 93.4077 230.201 92.7983 230.201 92.142C230.201 91.4858 230.097 90.8743 229.888 90.3075C229.679 89.7408 229.357 89.2827 228.923 88.9332C228.488 88.5838 227.934 88.4091 227.261 88.4091C226.587 88.4091 226.033 88.5838 225.599 88.9332C225.164 89.2827 224.842 89.7408 224.633 90.3075C224.425 90.8743 224.32 91.4858 224.32 92.142C224.32 92.7983 224.425 93.4077 224.633 93.9702C224.842 94.5327 225.164 94.9865 225.599 95.3317C226.033 95.6768 226.587 95.8494 227.261 95.8494ZM234.012 97V87.1818H235.47V88.7159H235.597C235.802 88.1918 236.132 87.7848 236.588 87.495C237.044 87.201 237.592 87.054 238.231 87.054C238.879 87.054 239.418 87.201 239.848 87.495C240.283 87.7848 240.622 88.1918 240.864 88.7159H240.967C241.218 88.2088 241.595 87.8061 242.098 87.5078C242.601 87.2053 243.204 87.054 243.907 87.054C244.785 87.054 245.503 87.3288 246.061 87.8786C246.619 88.424 246.899 89.2741 246.899 90.429V97H245.39V90.429C245.39 89.7045 245.192 89.1868 244.796 88.8757C244.399 88.5646 243.933 88.4091 243.396 88.4091C242.705 88.4091 242.171 88.6179 241.791 89.0355C241.412 89.4489 241.222 89.973 241.222 90.608V97H239.688V90.2756C239.688 89.7173 239.507 89.2678 239.145 88.9268C238.783 88.5817 238.316 88.4091 237.745 88.4091C237.353 88.4091 236.987 88.5135 236.646 88.7223C236.309 88.9311 236.036 89.2209 235.828 89.5916C235.623 89.9581 235.521 90.3821 235.521 90.8636V97H234.012ZM249.657 100.682V87.1818H251.114V88.7415H251.293C251.404 88.571 251.557 88.3537 251.753 88.0895C251.954 87.821 252.239 87.5824 252.61 87.3736C252.985 87.1605 253.492 87.054 254.131 87.054C254.958 87.054 255.687 87.2607 256.317 87.674C256.948 88.0874 257.44 88.6733 257.794 89.4318C258.147 90.1903 258.324 91.0852 258.324 92.1165C258.324 93.1562 258.147 94.0575 257.794 94.8203C257.44 95.5788 256.95 96.1669 256.324 96.5845C255.697 96.9979 254.975 97.2045 254.157 97.2045C253.526 97.2045 253.021 97.1001 252.642 96.8913C252.263 96.6783 251.971 96.4375 251.766 96.169C251.562 95.8963 251.404 95.6705 251.293 95.4915H251.165V100.682H249.657ZM251.14 92.0909C251.14 92.8324 251.248 93.4865 251.466 94.0533C251.683 94.6158 252 95.0568 252.418 95.3764C252.836 95.6918 253.347 95.8494 253.952 95.8494C254.583 95.8494 255.109 95.6832 255.531 95.3509C255.957 95.0142 256.277 94.5625 256.49 93.9957C256.707 93.4247 256.816 92.7898 256.816 92.0909C256.816 91.4006 256.709 90.7784 256.496 90.2244C256.287 89.6662 255.97 89.2251 255.544 88.9013C255.122 88.5732 254.591 88.4091 253.952 88.4091C253.339 88.4091 252.823 88.5646 252.405 88.8757C251.988 89.1825 251.672 89.6129 251.459 90.1669C251.246 90.7166 251.14 91.358 251.14 92.0909ZM262.134 83.9091V97H260.625V83.9091H262.134ZM264.897 97V87.1818H266.405V97H264.897ZM265.664 85.5455C265.37 85.5455 265.116 85.4453 264.903 85.245C264.695 85.0447 264.59 84.804 264.59 84.5227C264.59 84.2415 264.695 84.0007 264.903 83.8004C265.116 83.6001 265.37 83.5 265.664 83.5C265.958 83.5 266.209 83.6001 266.418 83.8004C266.631 84.0007 266.738 84.2415 266.738 84.5227C266.738 84.804 266.631 85.0447 266.418 85.245C266.209 85.4453 265.958 85.5455 265.664 85.5455ZM276.123 89.3807L274.768 89.7642C274.683 89.5384 274.557 89.3189 274.391 89.1058C274.229 88.8885 274.007 88.7095 273.726 88.5689C273.445 88.4283 273.085 88.358 272.646 88.358C272.045 88.358 271.544 88.4964 271.144 88.7734C270.747 89.0462 270.549 89.3935 270.549 89.8153C270.549 90.1903 270.685 90.4865 270.958 90.7038C271.231 90.9212 271.657 91.1023 272.237 91.2472L273.694 91.6051C274.572 91.8182 275.226 92.1442 275.656 92.5831C276.087 93.0178 276.302 93.5781 276.302 94.2642C276.302 94.8267 276.14 95.3295 275.816 95.7727C275.497 96.2159 275.049 96.5653 274.474 96.821C273.899 97.0767 273.23 97.2045 272.467 97.2045C271.465 97.2045 270.636 96.9872 269.98 96.5526C269.324 96.1179 268.909 95.483 268.734 94.6477L270.166 94.2898C270.302 94.8182 270.56 95.2145 270.939 95.4787C271.323 95.7429 271.823 95.875 272.441 95.875C273.144 95.875 273.703 95.7259 274.116 95.4276C274.534 95.125 274.742 94.7628 274.742 94.3409C274.742 94 274.623 93.7145 274.384 93.4844C274.146 93.25 273.779 93.0753 273.285 92.9602L271.649 92.5767C270.749 92.3636 270.089 92.0334 269.667 91.5859C269.249 91.1342 269.041 90.5696 269.041 89.892C269.041 89.3381 269.196 88.848 269.507 88.4219C269.823 87.9957 270.251 87.6612 270.792 87.4183C271.337 87.1754 271.955 87.054 272.646 87.054C273.617 87.054 274.38 87.267 274.934 87.6932C275.492 88.1193 275.889 88.6818 276.123 89.3807ZM280.081 91.0938V97H278.573V83.9091H280.081V88.7159H280.209C280.439 88.2088 280.784 87.8061 281.245 87.5078C281.709 87.2053 282.327 87.054 283.098 87.054C283.767 87.054 284.353 87.1882 284.856 87.4567C285.359 87.7209 285.749 88.1278 286.026 88.6776C286.307 89.223 286.448 89.9176 286.448 90.7614V97H284.939V90.8636C284.939 90.0838 284.737 89.4808 284.332 89.0547C283.931 88.6243 283.375 88.4091 282.664 88.4091C282.169 88.4091 281.726 88.5135 281.334 88.7223C280.946 88.9311 280.64 89.2358 280.414 89.6364C280.192 90.0369 280.081 90.5227 280.081 91.0938ZM293.324 97.2045C292.378 97.2045 291.562 96.9957 290.876 96.5781C290.194 96.1562 289.668 95.5682 289.297 94.8139C288.931 94.0554 288.747 93.1733 288.747 92.1676C288.747 91.1619 288.931 90.2756 289.297 89.5085C289.668 88.7372 290.183 88.1364 290.844 87.706C291.509 87.2713 292.284 87.054 293.171 87.054C293.682 87.054 294.187 87.1392 294.686 87.3097C295.184 87.4801 295.638 87.7571 296.047 88.1406C296.456 88.5199 296.782 89.0227 297.025 89.6491C297.268 90.2756 297.389 91.0469 297.389 91.9631V92.6023H289.821V91.2983H295.855C295.855 90.7443 295.744 90.25 295.523 89.8153C295.306 89.3807 294.994 89.0376 294.59 88.7862C294.189 88.5348 293.716 88.4091 293.171 88.4091C292.57 88.4091 292.05 88.5582 291.611 88.8565C291.176 89.1506 290.842 89.5341 290.607 90.0071C290.373 90.4801 290.256 90.9872 290.256 91.5284V92.3977C290.256 93.1392 290.384 93.7678 290.639 94.2834C290.899 94.7947 291.259 95.1847 291.72 95.4531C292.18 95.7173 292.715 95.8494 293.324 95.8494C293.72 95.8494 294.078 95.794 294.398 95.6832C294.722 95.5682 295.001 95.3977 295.235 95.1719C295.47 94.9418 295.651 94.6562 295.779 94.3153L297.236 94.7244C297.083 95.2188 296.825 95.6534 296.462 96.0284C296.1 96.3991 295.653 96.6889 295.12 96.8977C294.587 97.1023 293.989 97.2045 293.324 97.2045ZM303.391 97.2045C302.573 97.2045 301.851 96.9979 301.225 96.5845C300.598 96.1669 300.108 95.5788 299.754 94.8203C299.401 94.0575 299.224 93.1562 299.224 92.1165C299.224 91.0852 299.401 90.1903 299.754 89.4318C300.108 88.6733 300.6 88.0874 301.231 87.674C301.862 87.2607 302.59 87.054 303.417 87.054C304.056 87.054 304.561 87.1605 304.932 87.3736C305.307 87.5824 305.592 87.821 305.788 88.0895C305.989 88.3537 306.144 88.571 306.255 88.7415H306.383V83.9091H307.891V97H306.434V95.4915H306.255C306.144 95.6705 305.987 95.8963 305.782 96.169C305.578 96.4375 305.286 96.6783 304.906 96.8913C304.527 97.1001 304.022 97.2045 303.391 97.2045ZM303.596 95.8494C304.201 95.8494 304.712 95.6918 305.13 95.3764C305.548 95.0568 305.865 94.6158 306.083 94.0533C306.3 93.4865 306.409 92.8324 306.409 92.0909C306.409 91.358 306.302 90.7166 306.089 90.1669C305.876 89.6129 305.561 89.1825 305.143 88.8757C304.725 88.5646 304.21 88.4091 303.596 88.4091C302.957 88.4091 302.424 88.5732 301.998 88.9013C301.576 89.2251 301.259 89.6662 301.046 90.2244C300.837 90.7784 300.732 91.4006 300.732 92.0909C300.732 92.7898 300.839 93.4247 301.052 93.9957C301.269 94.5625 301.589 95.0142 302.011 95.3509C302.437 95.6832 302.965 95.8494 303.596 95.8494ZM320.196 87.1818V88.4602H315.108V87.1818H320.196ZM316.591 84.8295H318.1V94.1875C318.1 94.6136 318.161 94.9332 318.285 95.1463C318.413 95.3551 318.575 95.4957 318.771 95.5682C318.971 95.6364 319.182 95.6705 319.404 95.6705C319.57 95.6705 319.706 95.6619 319.813 95.6449C319.919 95.6236 320.004 95.6065 320.068 95.5938L320.375 96.9489C320.273 96.9872 320.13 97.0256 319.947 97.0639C319.764 97.1065 319.531 97.1278 319.25 97.1278C318.824 97.1278 318.406 97.0362 317.997 96.853C317.592 96.6697 317.256 96.3906 316.987 96.0156C316.723 95.6406 316.591 95.1676 316.591 94.5966V84.8295ZM324.185 91.0938V97H322.676V83.9091H324.185V88.7159H324.313C324.543 88.2088 324.888 87.8061 325.348 87.5078C325.813 87.2053 326.431 87.054 327.202 87.054C327.871 87.054 328.457 87.1882 328.96 87.4567C329.462 87.7209 329.852 88.1278 330.129 88.6776C330.411 89.223 330.551 89.9176 330.551 90.7614V97H329.043V90.8636C329.043 90.0838 328.84 89.4808 328.436 89.0547C328.035 88.6243 327.479 88.4091 326.767 88.4091C326.273 88.4091 325.83 88.5135 325.438 88.7223C325.05 88.9311 324.743 89.2358 324.517 89.6364C324.296 90.0369 324.185 90.5227 324.185 91.0938ZM337.428 97.2045C336.481 97.2045 335.665 96.9957 334.979 96.5781C334.298 96.1562 333.771 95.5682 333.401 94.8139C333.034 94.0554 332.851 93.1733 332.851 92.1676C332.851 91.1619 333.034 90.2756 333.401 89.5085C333.771 88.7372 334.287 88.1364 334.947 87.706C335.612 87.2713 336.388 87.054 337.274 87.054C337.785 87.054 338.29 87.1392 338.789 87.3097C339.288 87.4801 339.741 87.7571 340.151 88.1406C340.56 88.5199 340.886 89.0227 341.129 89.6491C341.371 90.2756 341.493 91.0469 341.493 91.9631V92.6023H333.925V91.2983H339.959C339.959 90.7443 339.848 90.25 339.626 89.8153C339.409 89.3807 339.098 89.0376 338.693 88.7862C338.293 88.5348 337.82 88.4091 337.274 88.4091C336.673 88.4091 336.153 88.5582 335.714 88.8565C335.28 89.1506 334.945 89.5341 334.711 90.0071C334.477 90.4801 334.359 90.9872 334.359 91.5284V92.3977C334.359 93.1392 334.487 93.7678 334.743 94.2834C335.003 94.7947 335.363 95.1847 335.823 95.4531C336.283 95.7173 336.818 95.8494 337.428 95.8494C337.824 95.8494 338.182 95.794 338.501 95.6832C338.825 95.5682 339.104 95.3977 339.339 95.1719C339.573 94.9418 339.754 94.6562 339.882 94.3153L341.339 94.7244C341.186 95.2188 340.928 95.6534 340.566 96.0284C340.204 96.3991 339.756 96.6889 339.224 96.8977C338.691 97.1023 338.092 97.2045 337.428 97.2045ZM343.788 97V87.1818H345.296V97H343.788ZM344.555 85.5455C344.261 85.5455 344.007 85.4453 343.794 85.245C343.585 85.0447 343.481 84.804 343.481 84.5227C343.481 84.2415 343.585 84.0007 343.794 83.8004C344.007 83.6001 344.261 83.5 344.555 83.5C344.849 83.5 345.1 83.6001 345.309 83.8004C345.522 84.0007 345.629 84.2415 345.629 84.5227C345.629 84.804 345.522 85.0447 345.309 85.245C345.1 85.4453 344.849 85.5455 344.555 85.5455ZM348.059 97V87.1818H349.516V88.6648H349.619C349.798 88.179 350.122 87.7848 350.59 87.4822C351.059 87.1797 351.587 87.0284 352.176 87.0284C352.286 87.0284 352.425 87.0305 352.591 87.0348C352.757 87.0391 352.883 87.0455 352.968 87.054V88.5881C352.917 88.5753 352.8 88.5561 352.617 88.5305C352.438 88.5007 352.248 88.4858 352.048 88.4858C351.57 88.4858 351.144 88.5859 350.769 88.7862C350.399 88.9822 350.105 89.255 349.887 89.6044C349.674 89.9496 349.568 90.3437 349.568 90.7869V97H348.059ZM363.782 100.886C363.053 100.886 362.427 100.793 361.903 100.605C361.379 100.422 360.942 100.179 360.592 99.8764C360.247 99.5781 359.972 99.2585 359.768 98.9176L360.969 98.0739C361.106 98.2528 361.278 98.4574 361.487 98.6875C361.696 98.9219 361.981 99.1243 362.344 99.2947C362.71 99.4695 363.19 99.5568 363.782 99.5568C364.575 99.5568 365.229 99.3651 365.744 98.9815C366.26 98.598 366.518 97.9972 366.518 97.179V95.1847H366.39C366.279 95.3636 366.121 95.5852 365.917 95.8494C365.717 96.1094 365.427 96.3416 365.048 96.5462C364.673 96.7464 364.165 96.8466 363.526 96.8466C362.734 96.8466 362.022 96.6591 361.391 96.2841C360.765 95.9091 360.268 95.3636 359.902 94.6477C359.54 93.9318 359.359 93.0625 359.359 92.0398C359.359 91.0341 359.535 90.1584 359.889 89.4126C360.243 88.6626 360.735 88.0831 361.366 87.674C361.996 87.2607 362.725 87.054 363.552 87.054C364.191 87.054 364.698 87.1605 365.073 87.3736C365.452 87.5824 365.742 87.821 365.942 88.0895C366.147 88.3537 366.305 88.571 366.415 88.7415H366.569V87.1818H368.026V97.2812C368.026 98.125 367.834 98.8111 367.451 99.3395C367.072 99.8722 366.56 100.262 365.917 100.509C365.278 100.761 364.566 100.886 363.782 100.886ZM363.731 95.4915C364.336 95.4915 364.847 95.353 365.265 95.076C365.682 94.799 366 94.4006 366.217 93.8807C366.435 93.3608 366.543 92.7386 366.543 92.0142C366.543 91.3068 366.437 90.6825 366.224 90.1413C366.011 89.6001 365.695 89.1761 365.278 88.8693C364.86 88.5625 364.344 88.4091 363.731 88.4091C363.092 88.4091 362.559 88.571 362.133 88.8949C361.711 89.2187 361.393 89.6534 361.18 90.1989C360.972 90.7443 360.867 91.3494 360.867 92.0142C360.867 92.696 360.974 93.299 361.187 93.8232C361.404 94.343 361.724 94.7521 362.146 95.0504C362.572 95.3445 363.1 95.4915 363.731 95.4915ZM374.776 97.2045C373.89 97.2045 373.112 96.9936 372.443 96.5717C371.778 96.1499 371.258 95.5597 370.883 94.8011C370.513 94.0426 370.327 93.1562 370.327 92.142C370.327 91.1193 370.513 90.2266 370.883 89.4638C371.258 88.701 371.778 88.1087 372.443 87.6868C373.112 87.2649 373.89 87.054 374.776 87.054C375.663 87.054 376.438 87.2649 377.103 87.6868C377.772 88.1087 378.292 88.701 378.663 89.4638C379.038 90.2266 379.225 91.1193 379.225 92.142C379.225 93.1562 379.038 94.0426 378.663 94.8011C378.292 95.5597 377.772 96.1499 377.103 96.5717C376.438 96.9936 375.663 97.2045 374.776 97.2045ZM374.776 95.8494C375.45 95.8494 376.004 95.6768 376.438 95.3317C376.873 94.9865 377.195 94.5327 377.403 93.9702C377.612 93.4077 377.717 92.7983 377.717 92.142C377.717 91.4858 377.612 90.8743 377.403 90.3075C377.195 89.7408 376.873 89.2827 376.438 88.9332C376.004 88.5838 375.45 88.4091 374.776 88.4091C374.103 88.4091 373.549 88.5838 373.114 88.9332C372.68 89.2827 372.358 89.7408 372.149 90.3075C371.94 90.8743 371.836 91.4858 371.836 92.142C371.836 92.7983 371.94 93.4077 372.149 93.9702C372.358 94.5327 372.68 94.9865 373.114 95.3317C373.549 95.6768 374.103 95.8494 374.776 95.8494ZM384.417 97.2301C383.795 97.2301 383.23 97.1129 382.723 96.8786C382.216 96.6399 381.813 96.2969 381.515 95.8494C381.217 95.3977 381.068 94.8523 381.068 94.2131C381.068 93.6506 381.178 93.1946 381.4 92.8452C381.622 92.4915 381.918 92.2145 382.288 92.0142C382.659 91.8139 383.068 91.6648 383.516 91.5668C383.967 91.4645 384.421 91.3835 384.877 91.3239C385.474 91.2472 385.958 91.1896 386.328 91.1513C386.703 91.1087 386.976 91.0384 387.146 90.9403C387.321 90.8423 387.409 90.6719 387.409 90.429V90.3778C387.409 89.7472 387.236 89.2571 386.891 88.9077C386.55 88.5582 386.032 88.3835 385.337 88.3835C384.617 88.3835 384.053 88.5412 383.644 88.8565C383.235 89.1719 382.947 89.5085 382.781 89.8665L381.349 89.3551C381.605 88.7585 381.945 88.294 382.372 87.9616C382.802 87.625 383.271 87.3906 383.778 87.2585C384.289 87.1222 384.792 87.054 385.286 87.054C385.602 87.054 385.964 87.0923 386.373 87.169C386.786 87.2415 387.185 87.3928 387.568 87.6229C387.956 87.853 388.278 88.2003 388.534 88.6648C388.789 89.1293 388.917 89.7514 388.917 90.5312V97H387.409V95.6705H387.332C387.23 95.8835 387.059 96.1115 386.82 96.3544C386.582 96.5973 386.264 96.804 385.868 96.9744C385.472 97.1449 384.988 97.2301 384.417 97.2301ZM384.647 95.875C385.244 95.875 385.747 95.7578 386.156 95.5234C386.569 95.2891 386.88 94.9865 387.089 94.6158C387.302 94.245 387.409 93.8551 387.409 93.446V92.0653C387.345 92.142 387.204 92.2124 386.987 92.2763C386.774 92.3359 386.526 92.3892 386.245 92.4361C385.968 92.4787 385.698 92.517 385.433 92.5511C385.173 92.581 384.962 92.6065 384.801 92.6278C384.409 92.679 384.042 92.7621 383.701 92.8771C383.364 92.9879 383.092 93.1562 382.883 93.3821C382.678 93.6037 382.576 93.9062 382.576 94.2898C382.576 94.8139 382.77 95.2102 383.158 95.4787C383.55 95.7429 384.046 95.875 384.647 95.875ZM393.179 83.9091V97H391.67V83.9091H393.179ZM402.896 89.3807L401.541 89.7642C401.456 89.5384 401.33 89.3189 401.164 89.1058C401.002 88.8885 400.781 88.7095 400.499 88.5689C400.218 88.4283 399.858 88.358 399.419 88.358C398.818 88.358 398.318 88.4964 397.917 88.7734C397.521 89.0462 397.323 89.3935 397.323 89.8153C397.323 90.1903 397.459 90.4865 397.732 90.7038C398.004 90.9212 398.431 91.1023 399.01 91.2472L400.467 91.6051C401.345 91.8182 401.999 92.1442 402.43 92.5831C402.86 93.0178 403.075 93.5781 403.075 94.2642C403.075 94.8267 402.913 95.3295 402.59 95.7727C402.27 96.2159 401.823 96.5653 401.247 96.821C400.672 97.0767 400.003 97.2045 399.24 97.2045C398.239 97.2045 397.41 96.9872 396.754 96.5526C396.097 96.1179 395.682 95.483 395.507 94.6477L396.939 94.2898C397.075 94.8182 397.333 95.2145 397.712 95.4787C398.096 95.7429 398.597 95.875 399.215 95.875C399.918 95.875 400.476 95.7259 400.889 95.4276C401.307 95.125 401.516 94.7628 401.516 94.3409C401.516 94 401.396 93.7145 401.158 93.4844C400.919 93.25 400.553 93.0753 400.058 92.9602L398.422 92.5767C397.523 92.3636 396.862 92.0334 396.44 91.5859C396.023 91.1342 395.814 90.5696 395.814 89.892C395.814 89.3381 395.97 88.848 396.281 88.4219C396.596 87.9957 397.024 87.6612 397.565 87.4183C398.111 87.1754 398.729 87.054 399.419 87.054C400.391 87.054 401.154 87.267 401.708 87.6932C402.266 88.1193 402.662 88.6818 402.896 89.3807ZM181.076 124L178.085 114.182H179.67L181.792 121.699H181.895L183.991 114.182H185.602L187.673 121.673H187.775L189.897 114.182H191.483L188.491 124H187.008L184.861 116.457H184.707L182.559 124H181.076ZM193.477 124V114.182H194.986V124H193.477ZM194.244 112.545C193.95 112.545 193.697 112.445 193.483 112.245C193.275 112.045 193.17 111.804 193.17 111.523C193.17 111.241 193.275 111.001 193.483 110.8C193.697 110.6 193.95 110.5 194.244 110.5C194.538 110.5 194.79 110.6 194.998 110.8C195.211 111.001 195.318 111.241 195.318 111.523C195.318 111.804 195.211 112.045 194.998 112.245C194.79 112.445 194.538 112.545 194.244 112.545ZM202.018 114.182V115.46H196.93V114.182H202.018ZM198.413 111.83H199.922V121.188C199.922 121.614 199.984 121.933 200.107 122.146C200.235 122.355 200.397 122.496 200.593 122.568C200.793 122.636 201.004 122.67 201.226 122.67C201.392 122.67 201.528 122.662 201.635 122.645C201.741 122.624 201.827 122.607 201.891 122.594L202.197 123.949C202.095 123.987 201.952 124.026 201.769 124.064C201.586 124.107 201.354 124.128 201.072 124.128C200.646 124.128 200.229 124.036 199.82 123.853C199.415 123.67 199.078 123.391 198.81 123.016C198.545 122.641 198.413 122.168 198.413 121.597V111.83ZM206.007 118.094V124H204.499V110.909H206.007V115.716H206.135C206.365 115.209 206.71 114.806 207.17 114.508C207.635 114.205 208.253 114.054 209.024 114.054C209.693 114.054 210.279 114.188 210.782 114.457C211.285 114.721 211.675 115.128 211.952 115.678C212.233 116.223 212.374 116.918 212.374 117.761V124H210.865V117.864C210.865 117.084 210.663 116.481 210.258 116.055C209.857 115.624 209.301 115.409 208.589 115.409C208.095 115.409 207.652 115.513 207.26 115.722C206.872 115.931 206.565 116.236 206.339 116.636C206.118 117.037 206.007 117.523 206.007 118.094ZM219.122 124.205C218.236 124.205 217.458 123.994 216.789 123.572C216.124 123.15 215.604 122.56 215.229 121.801C214.858 121.043 214.673 120.156 214.673 119.142C214.673 118.119 214.858 117.227 215.229 116.464C215.604 115.701 216.124 115.109 216.789 114.687C217.458 114.265 218.236 114.054 219.122 114.054C220.008 114.054 220.784 114.265 221.449 114.687C222.118 115.109 222.638 115.701 223.008 116.464C223.383 117.227 223.571 118.119 223.571 119.142C223.571 120.156 223.383 121.043 223.008 121.801C222.638 122.56 222.118 123.15 221.449 123.572C220.784 123.994 220.008 124.205 219.122 124.205ZM219.122 122.849C219.795 122.849 220.349 122.677 220.784 122.332C221.219 121.987 221.54 121.533 221.749 120.97C221.958 120.408 222.062 119.798 222.062 119.142C222.062 118.486 221.958 117.874 221.749 117.308C221.54 116.741 221.219 116.283 220.784 115.933C220.349 115.584 219.795 115.409 219.122 115.409C218.449 115.409 217.895 115.584 217.46 115.933C217.025 116.283 216.704 116.741 216.495 117.308C216.286 117.874 216.182 118.486 216.182 119.142C216.182 119.798 216.286 120.408 216.495 120.97C216.704 121.533 217.025 121.987 217.46 122.332C217.895 122.677 218.449 122.849 219.122 122.849ZM232.061 119.986V114.182H233.57V124H232.061V122.338H231.959C231.729 122.837 231.371 123.261 230.885 123.61C230.399 123.955 229.785 124.128 229.044 124.128C228.43 124.128 227.885 123.994 227.408 123.725C226.93 123.452 226.555 123.043 226.283 122.498C226.01 121.948 225.874 121.256 225.874 120.42V114.182H227.382V120.318C227.382 121.034 227.582 121.605 227.983 122.031C228.388 122.457 228.903 122.67 229.53 122.67C229.905 122.67 230.286 122.575 230.674 122.383C231.066 122.191 231.394 121.897 231.658 121.501C231.927 121.104 232.061 120.599 232.061 119.986ZM240.602 114.182V115.46H235.514V114.182H240.602ZM236.997 111.83H238.506V121.188C238.506 121.614 238.568 121.933 238.691 122.146C238.819 122.355 238.981 122.496 239.177 122.568C239.377 122.636 239.588 122.67 239.81 122.67C239.976 122.67 240.112 122.662 240.219 122.645C240.325 122.624 240.411 122.607 240.475 122.594L240.781 123.949C240.679 123.987 240.536 124.026 240.353 124.064C240.17 124.107 239.938 124.128 239.656 124.128C239.23 124.128 238.813 124.036 238.404 123.853C237.999 123.67 237.662 123.391 237.394 123.016C237.129 122.641 236.997 122.168 236.997 121.597V111.83ZM249.443 118.094V124H247.934V110.909H249.443V115.716H249.57C249.801 115.209 250.146 114.806 250.606 114.508C251.07 114.205 251.688 114.054 252.46 114.054C253.129 114.054 253.715 114.188 254.217 114.457C254.72 114.721 255.11 115.128 255.387 115.678C255.668 116.223 255.809 116.918 255.809 117.761V124H254.301V117.864C254.301 117.084 254.098 116.481 253.693 116.055C253.293 115.624 252.737 115.409 252.025 115.409C251.531 115.409 251.087 115.513 250.695 115.722C250.308 115.931 250.001 116.236 249.775 116.636C249.553 117.037 249.443 117.523 249.443 118.094ZM262.685 124.205C261.739 124.205 260.923 123.996 260.237 123.578C259.555 123.156 259.029 122.568 258.658 121.814C258.292 121.055 258.109 120.173 258.109 119.168C258.109 118.162 258.292 117.276 258.658 116.509C259.029 115.737 259.545 115.136 260.205 114.706C260.87 114.271 261.646 114.054 262.532 114.054C263.043 114.054 263.548 114.139 264.047 114.31C264.545 114.48 264.999 114.757 265.408 115.141C265.817 115.52 266.143 116.023 266.386 116.649C266.629 117.276 266.751 118.047 266.751 118.963V119.602H259.182V118.298H265.217C265.217 117.744 265.106 117.25 264.884 116.815C264.667 116.381 264.356 116.038 263.951 115.786C263.55 115.535 263.077 115.409 262.532 115.409C261.931 115.409 261.411 115.558 260.972 115.857C260.538 116.151 260.203 116.534 259.969 117.007C259.734 117.48 259.617 117.987 259.617 118.528V119.398C259.617 120.139 259.745 120.768 260.001 121.283C260.261 121.795 260.621 122.185 261.081 122.453C261.541 122.717 262.076 122.849 262.685 122.849C263.082 122.849 263.44 122.794 263.759 122.683C264.083 122.568 264.362 122.398 264.597 122.172C264.831 121.942 265.012 121.656 265.14 121.315L266.597 121.724C266.444 122.219 266.186 122.653 265.824 123.028C265.462 123.399 265.014 123.689 264.481 123.898C263.949 124.102 263.35 124.205 262.685 124.205ZM270.554 110.909V124H269.045V110.909H270.554ZM273.317 127.682V114.182H274.774V115.741H274.953C275.064 115.571 275.217 115.354 275.413 115.089C275.614 114.821 275.899 114.582 276.27 114.374C276.645 114.161 277.152 114.054 277.791 114.054C278.618 114.054 279.347 114.261 279.977 114.674C280.608 115.087 281.1 115.673 281.454 116.432C281.808 117.19 281.984 118.085 281.984 119.116C281.984 120.156 281.808 121.058 281.454 121.82C281.1 122.579 280.61 123.167 279.984 123.585C279.357 123.998 278.635 124.205 277.817 124.205C277.186 124.205 276.681 124.1 276.302 123.891C275.923 123.678 275.631 123.437 275.426 123.169C275.222 122.896 275.064 122.67 274.953 122.491H274.825V127.682H273.317ZM274.8 119.091C274.8 119.832 274.909 120.487 275.126 121.053C275.343 121.616 275.661 122.057 276.078 122.376C276.496 122.692 277.007 122.849 277.612 122.849C278.243 122.849 278.769 122.683 279.191 122.351C279.617 122.014 279.937 121.562 280.15 120.996C280.367 120.425 280.476 119.79 280.476 119.091C280.476 118.401 280.369 117.778 280.156 117.224C279.948 116.666 279.63 116.225 279.204 115.901C278.782 115.573 278.252 115.409 277.612 115.409C276.999 115.409 276.483 115.565 276.065 115.876C275.648 116.183 275.333 116.613 275.119 117.167C274.906 117.717 274.8 118.358 274.8 119.091ZM285.385 124.102C285.07 124.102 284.799 123.989 284.573 123.763C284.347 123.538 284.234 123.267 284.234 122.952C284.234 122.636 284.347 122.366 284.573 122.14C284.799 121.914 285.07 121.801 285.385 121.801C285.7 121.801 285.971 121.914 286.197 122.14C286.423 122.366 286.536 122.636 286.536 122.952C286.536 123.161 286.482 123.352 286.376 123.527C286.274 123.702 286.135 123.842 285.96 123.949C285.79 124.051 285.598 124.102 285.385 124.102Z" fill="white"/>
</svg>
