<svg width="53" height="52" viewBox="0 0 53 52" fill="none" xmlns="http://www.w3.org/2000/svg">
<rect x="0.333496" width="52" height="52" rx="26" fill="#A1D138"/>
<path fill-rule="evenodd" clip-rule="evenodd" d="M22.5835 17.75L33.8335 17.75C34.0324 17.75 34.2232 17.829 34.3638 17.9697C34.5045 18.1103 34.5835 18.3011 34.5835 18.5V29.75C34.5835 30.1642 34.2477 30.5 33.8335 30.5C33.4193 30.5 33.0835 30.1642 33.0835 29.75V20.3107L19.3638 34.0303C19.0709 34.3232 18.5961 34.3232 18.3032 34.0303C18.0103 33.7374 18.0103 33.2626 18.3032 32.9697L32.0228 19.25L22.5835 19.25C22.1693 19.25 21.8335 18.9142 21.8335 18.5C21.8335 18.0858 22.1693 17.75 22.5835 17.75Z" fill="#141414"/>
</svg>
