<svg width="24" height="25" viewBox="0 0 24 25" fill="none" xmlns="http://www.w3.org/2000/svg">
<path fill-rule="evenodd" clip-rule="evenodd" d="M8.25 4.25L19.5 4.25C19.6989 4.25 19.8897 4.32902 20.0303 4.46967C20.171 4.61032 20.25 4.80109 20.25 5V16.25C20.25 16.6642 19.9142 17 19.5 17C19.0858 17 18.75 16.6642 18.75 16.25V6.81066L5.03033 20.5303C4.73744 20.8232 4.26256 20.8232 3.96967 20.5303C3.67678 20.2374 3.67678 19.7626 3.96967 19.4697L17.6893 5.75L8.25 5.75C7.83579 5.75 7.5 5.41421 7.5 5C7.5 4.58579 7.83579 4.25 8.25 4.25Z" fill="#A1D138"/>
</svg>
