<svg width="50" height="50" viewBox="0 0 50 50" fill="none" xmlns="http://www.w3.org/2000/svg">
<path d="M28.9276 34.4165H21.1221V49.9998H28.9276V34.4165Z" fill="#A1D138"/>
<path d="M28.9276 0H21.1221V15.5833H28.9276V0Z" fill="#A1D138"/>
<path d="M34.4097 21.0944V28.8999H49.993V21.0944H34.4097Z" fill="#A1D138"/>
<path d="M0 21.1017L0 28.9072H15.5833V21.1017H0Z" fill="#A1D138"/>
<path d="M34.4246 28.8767L28.9053 34.396L39.9242 45.415L45.4436 39.8956L34.4246 28.8767Z" fill="white"/>
<path d="M10.0906 4.54564L4.57129 10.0649L15.5903 21.0839L21.1096 15.5646L10.0906 4.54564Z" fill="white"/>
<path d="M28.886 15.5886L34.4053 21.1079L45.4243 10.0889L39.9049 4.56961L28.886 15.5886Z" fill="white"/>
<path d="M4.55711 39.9197L10.0764 45.439L21.0954 34.42L15.5761 28.9007L4.55711 39.9197Z" fill="white"/>
</svg>
