<svg width="38" height="38" viewBox="0 0 38 38" fill="none" xmlns="http://www.w3.org/2000/svg">
<g clip-path="url(#clip0_5_974)">
<path d="M10.5 19L17.7857 25.0714L27.5 12.9286M19 36C16.7675 36 14.5569 35.5603 12.4944 34.706C10.4318 33.8516 8.55778 32.5994 6.97918 31.0208C5.40059 29.4422 4.14838 27.5682 3.29405 25.5056C2.43972 23.4431 2 21.2325 2 19C2 16.7675 2.43972 14.5569 3.29405 12.4944C4.14838 10.4318 5.40059 8.55778 6.97918 6.97918C8.55778 5.40059 10.4318 4.14838 12.4944 3.29405C14.5569 2.43972 16.7675 2 19 2C23.5087 2 27.8327 3.79107 31.0208 6.97919C34.2089 10.1673 36 14.4913 36 19C36 23.5087 34.2089 27.8327 31.0208 31.0208C27.8327 34.2089 23.5087 36 19 36Z" stroke="white" stroke-width="4"/>
</g>
<defs>
<clipPath id="clip0_5_974">
<rect width="38" height="38" fill="white"/>
</clipPath>
</defs>
</svg>
