<svg width="138" height="133" viewBox="0 0 138 133" fill="none" xmlns="http://www.w3.org/2000/svg">
<path d="M103.167 9.08714C113.555 14.8912 122.181 23.2393 128.179 33.2922C134.176 43.3452 137.333 54.7489 137.333 66.357C137.333 77.9651 134.176 89.3688 128.178 99.4217C122.181 109.475 113.554 117.823 103.166 123.626C92.7779 129.43 80.9941 132.486 68.999 132.486C57.0039 132.485 45.2202 129.43 34.8323 123.625C24.4444 117.821 15.8182 109.473 9.82092 99.4198C3.82361 89.3668 0.666443 77.9631 0.666748 66.3549L0.700916 64.2123C1.0836 52.7918 4.51766 41.6621 10.6683 31.9082C16.8189 22.1544 25.4762 14.1093 35.7962 8.55733C46.1161 3.00534 57.7466 0.135894 69.5536 0.228746C81.3607 0.321598 92.9414 3.37358 103.167 9.08714ZM69.0001 26.6775C67.1878 26.6775 65.4497 27.3742 64.1682 28.6144C62.8867 29.8545 62.1667 31.5365 62.1667 33.2904C56.7298 33.2904 51.5155 35.3805 47.6711 39.101C43.8266 42.8215 41.6667 47.8675 41.6667 53.1291C41.6667 58.3907 43.8266 63.4367 47.6711 67.1572C51.5155 70.8777 56.7298 72.9678 62.1667 72.9678V86.1936C61.0338 86.2521 59.9031 86.043 58.8722 85.5845C57.8413 85.126 56.9411 84.4318 56.2491 83.5617L55.7844 82.8938C54.8495 81.4347 53.3648 80.3846 51.6444 79.9657C49.9239 79.5467 48.1025 79.7917 46.5653 80.6489C45.0281 81.5061 43.8957 82.9082 43.4075 84.5588C42.9192 86.2093 43.1134 87.979 43.9491 89.4935C45.6932 92.4208 48.1811 94.8684 51.1767 96.6044C54.1724 98.3403 57.5766 99.307 61.0666 99.4128H62.1667C62.1653 101.034 62.779 102.599 63.8914 103.81C65.0037 105.022 66.5372 105.796 68.2006 105.986L69.0001 106.032C70.8124 106.032 72.5505 105.336 73.832 104.095C75.1135 102.855 75.8334 101.173 75.8334 99.4194L77.0361 99.3864C82.3634 99.0884 87.3607 96.7919 90.9661 92.9849C94.5715 89.1779 96.5009 84.1604 96.3443 78.9985C96.1877 73.8367 93.9575 68.9374 90.1275 65.3416C86.2975 61.7458 81.1696 59.737 75.8334 59.742V46.5162C78.2797 46.4368 80.4186 47.442 81.7511 49.1481L82.2157 49.816C83.1507 51.2752 84.6353 52.3252 86.3558 52.7442C88.0763 53.1631 89.8977 52.9181 91.4348 52.0609C92.972 51.2037 94.1045 49.8016 94.5927 48.1511C95.0809 46.5005 94.8867 44.7308 94.0511 43.2164C92.3078 40.2878 89.8203 37.8388 86.8246 36.1017C83.8288 34.3646 80.4242 33.3969 76.9336 33.2904H75.8334C75.8334 31.5365 75.1135 29.8545 73.832 28.6144C72.5505 27.3742 70.8124 26.6775 69.0001 26.6775ZM75.8334 72.9678C77.6457 72.9678 79.3838 73.6645 80.6653 74.9047C81.9468 76.1448 82.6667 77.8269 82.6667 79.5807C82.6667 81.3346 81.9468 83.0166 80.6653 84.2567C79.3838 85.4969 77.6457 86.1936 75.8334 86.1936V72.9678ZM62.1667 46.5162V59.742C60.3544 59.742 58.6163 59.0453 57.3349 57.8051C56.0534 56.565 55.3334 54.8829 55.3334 53.1291C55.3334 51.3752 56.0534 49.6932 57.3349 48.4531C58.6163 47.2129 60.3544 46.5162 62.1667 46.5162Z" fill="#A1D138"/>
</svg>
