<svg width="89" height="88" viewBox="0 0 89 88" fill="none" xmlns="http://www.w3.org/2000/svg">
<g opacity="0.1" clip-path="url(#clip0_5_707)">
<path d="M76.7153 37.9867L82.1524 38.0529L81.5564 86.9868L76.1193 86.9205L76.7153 37.9867ZM22.1125 56.3543L27.6159 50.9835L27.1855 86.3246L21.7484 86.2584L22.1125 56.3543ZM11.1059 67.0961L16.6092 61.7252L16.3113 86.1922L10.8742 86.1259L11.1059 67.0961ZM33.1192 45.6126L38.6225 40.2417L38.0596 86.457L32.6225 86.3908L33.1192 45.6126ZM44.0596 40.3079L49.4305 45.8112L48.9344 86.547L43.4973 86.4808L44.0596 40.3079ZM57.4868 54.0662L60.2384 51.3808L59.808 86.7219L54.3709 86.6557L54.5861 68.9851L54.8013 51.3145L57.4868 54.0662ZM65.7418 46.0099L71.2451 40.639L70.6822 86.8543L65.2451 86.7881L65.7418 46.0099ZM0.0992935 77.8379L5.60261 72.467L5.43707 86.0597L-3.157e-05 85.9935L0.0992935 77.8379ZM87.9206 10.9336L87.6557 32.682L82.2186 32.6158L82.3702 20.1699L57.6058 44.2964L41.4931 27.7865L0.217759 68.1105L0.311911 60.3797L41.5862 20.1406L57.6989 36.6505L78.5518 16.2574L66.1059 16.1058L66.1722 10.6687L87.9206 10.9336Z" fill="white"/>
</g>
<defs>
<clipPath id="clip0_5_707">
<rect width="87" height="87" fill="white" transform="translate(1.05945 -1) rotate(0.697753)"/>
</clipPath>
</defs>
</svg>
