<svg width="126" height="120" viewBox="0 0 126 120" fill="none" xmlns="http://www.w3.org/2000/svg">
<g opacity="0.1">
<path d="M125.737 31.4454C132.977 24.2058 129.675 15.75 125.737 11.6379L108.362 -5.73712C101.065 -12.9767 92.6666 -9.67545 88.5546 -5.73712L78.7087 4.16663H63.7083C52.7041 4.16663 46.3333 9.9583 43.09 16.6187L17.375 42.3337V65.5004L13.2629 69.5546C6.0233 76.8521 9.32455 85.25 13.2629 89.362L30.6379 106.737C33.7654 109.865 37.1245 111.023 40.31 111.023C44.422 111.023 48.1866 108.996 50.4454 106.737L66.0829 91.0416H86.875C96.7208 91.0416 101.702 84.9025 103.497 78.8791C110.042 77.1416 113.632 72.1608 115.08 67.2958C124.057 64.9791 127.417 56.4654 127.417 50.5V33.125H124L125.737 31.4454ZM115.833 50.5C115.833 53.1062 114.733 56.2916 110.042 56.2916H104.25V62.0833C104.25 64.6896 103.15 67.875 98.4583 67.875H92.6666V73.6666C92.6666 76.2729 91.5662 79.4583 86.875 79.4583H61.3337L42.337 98.455C40.5416 100.135 39.4991 99.15 38.862 98.5129L21.545 81.2537C19.8654 79.4583 20.85 78.4158 21.487 77.7787L28.9583 70.2495V47.0829L40.5416 35.4995V44.7083C40.5416 51.7162 45.175 62.0833 57.9166 62.0833C70.6583 62.0833 75.2916 51.7162 75.2916 44.7083H115.833V50.5ZM117.513 23.2212L107.667 33.125H63.7083V44.7083C63.7083 47.3145 62.6079 50.5 57.9166 50.5C53.2254 50.5 52.125 47.3145 52.125 44.7083V27.3333C52.125 24.6691 53.1096 15.75 63.7083 15.75H83.4579L96.6629 2.54496C98.4583 0.865381 99.5008 1.84997 100.138 2.48705L117.455 19.7462C119.135 21.5416 118.15 22.5841 117.513 23.2212Z" fill="black"/>
</g>
</svg>
