<svg width="79" height="86" viewBox="0 0 79 86" fill="none" xmlns="http://www.w3.org/2000/svg">
<path d="M24.3863 46.6009L54.6438 16.3434" stroke="white" stroke-width="8" stroke-linecap="round" stroke-linejoin="round"/>
<path d="M26.9077 21.3863C28.3003 21.3863 29.4292 20.2574 29.4292 18.8648C29.4292 17.4723 28.3003 16.3434 26.9077 16.3434C25.5152 16.3434 24.3863 17.4723 24.3863 18.8648C24.3863 20.2574 25.5152 21.3863 26.9077 21.3863Z" fill="white" stroke="white" stroke-width="8" stroke-linecap="round" stroke-linejoin="round"/>
<path d="M52.1223 46.6009C53.5149 46.6009 54.6437 45.472 54.6437 44.0794C54.6437 42.6869 53.5149 41.558 52.1223 41.558C50.7297 41.558 49.6008 42.6869 49.6008 44.0794C49.6008 45.472 50.7297 46.6009 52.1223 46.6009Z" fill="white" stroke="white" stroke-width="8" stroke-linecap="round" stroke-linejoin="round"/>
<path d="M4.2146 81.9013V1.21462C4.2146 -1.46031 5.27721 -4.02568 7.16867 -5.91714C9.06013 -7.8086 11.6255 -8.87122 14.3004 -8.87122H64.7296C67.4045 -8.87122 69.9699 -7.8086 71.8614 -5.91714C73.7528 -4.02568 74.8154 -1.46031 74.8154 1.21462V81.9013L59.6867 71.8155L49.6008 81.9013L39.515 71.8155L29.4292 81.9013L19.3433 71.8155L4.2146 81.9013Z" stroke="white" stroke-width="8" stroke-linecap="round" stroke-linejoin="round"/>
</svg>
