<svg width="118" height="110" viewBox="0 0 118 110" fill="none" xmlns="http://www.w3.org/2000/svg">
<g opacity="0.1" clip-path="url(#clip0_5_717)">
<path d="M72.5099 11.5365C69.131 13.1405 66.3038 15.7105 64.3855 18.9214C62.4673 22.1322 61.5443 25.8398 61.7333 29.5753C61.9222 33.3107 63.2146 36.9063 65.447 39.9072C67.6794 42.9082 70.7515 45.1798 74.2749 46.4347C77.7983 47.6897 81.6147 47.8716 85.2416 46.9576C88.8684 46.0435 92.1427 44.0745 94.6505 41.2996C97.1583 38.5246 98.7868 35.0683 99.3303 31.3678C99.8738 27.6672 99.3077 23.8887 97.7036 20.5098C95.5527 15.979 91.6899 12.4882 86.9652 10.8054C82.2404 9.12253 77.0407 9.38551 72.5099 11.5365ZM85.4862 38.8702C83.4589 39.8326 81.1917 40.1723 78.9714 39.8462C76.7511 39.5201 74.6773 38.543 73.0123 37.0383C71.3474 35.5336 70.166 33.569 69.6175 31.3929C69.0691 29.2169 69.1783 26.927 69.9312 24.813C70.6842 22.6989 72.0472 20.8556 73.8477 19.5162C75.6483 18.1767 77.8056 17.4013 80.0469 17.288C82.2882 17.1746 84.5127 17.7284 86.4393 18.8793C88.3658 20.0303 89.9078 21.7266 90.8702 23.7539C92.1608 26.4724 92.3186 29.5923 91.3089 32.4271C90.2992 35.262 88.2047 37.5796 85.4862 38.8702ZM113.856 -24.8389L18.1877 20.5782C17.2815 21.0083 16.5834 21.7809 16.2468 22.7258C15.9102 23.6708 15.9628 24.7107 16.393 25.6169L42.3457 80.2843C42.7758 81.1905 43.5484 81.8887 44.4933 82.2252C45.4383 82.5618 46.4782 82.5092 47.3844 82.079L143.052 36.6619C143.959 36.2317 144.657 35.4592 144.993 34.5142C145.33 33.5693 145.277 32.5293 144.847 31.6232L118.894 -23.0442C118.464 -23.9504 117.692 -24.6486 116.747 -24.9851C115.802 -25.3217 114.762 -25.2691 113.856 -24.8389ZM120.013 39.2262L63.9359 65.8479C60.947 62.5128 57.1711 59.9785 52.9522 58.4759C48.7334 56.9732 44.2056 56.55 39.7814 57.2447L32.6241 42.1684C35.9592 39.1795 38.4935 35.4036 39.9961 31.1847C41.4988 26.9659 41.922 22.4382 41.2274 18.0139L97.3042 -8.60781C100.293 -5.27273 104.069 -2.73846 108.288 -1.23582C112.507 0.266831 117.034 0.69009 121.459 -0.00458656L128.616 15.0717C125.281 18.0606 122.747 21.8365 121.244 26.0553C119.741 30.2742 119.318 34.8019 120.013 39.2262ZM118.016 -7.25656C113.081 -7.07321 108.264 -8.78898 104.556 -12.0506L113.683 -16.3835L118.016 -7.25656ZM33.9754 21.4567C34.1588 26.3914 32.443 31.2087 29.1814 34.9164L24.8485 25.7895L33.9754 21.4567ZM43.2242 64.4966C48.1589 64.3133 52.9762 66.0291 56.6839 69.2907L47.557 73.6235L43.2242 64.4966ZM127.265 35.7834C127.081 30.8486 128.797 26.0314 132.059 22.3236L136.392 31.4505L127.265 35.7834Z" fill="white"/>
</g>
<defs>
<clipPath id="clip0_5_717">
<rect width="121.03" height="121.03" fill="white" transform="translate(0 -0.0947266) rotate(-25.3954)"/>
</clipPath>
</defs>
</svg>
