<svg width="121" height="102" viewBox="0 0 121 102" fill="none" xmlns="http://www.w3.org/2000/svg">
<g opacity="0.1" clip-path="url(#clip0_5_712)">
<path d="M70.621 31.6617C70.1416 31.6584 69.6804 31.845 69.338 32.1806C68.9956 32.5161 68.7998 32.9735 68.7934 33.4529V46.8388C68.7998 47.3193 68.9964 47.7776 69.3401 48.1133C69.6838 48.4491 70.1466 48.6349 70.6271 48.6301H110.948C111.429 48.6349 111.891 48.4491 112.235 48.1133C112.579 47.7776 112.775 47.3193 112.782 46.8388V33.4529C112.775 32.9725 112.579 32.5142 112.235 32.1784C111.891 31.8426 111.429 31.6568 110.948 31.6617H70.621ZM95.3474 -10.9167C100.927 -10.6504 104.939 -9.54904 107.481 -7.21316C109.992 -4.90149 111.281 -1.55501 111.535 2.87469V15.5647C111.522 16.6454 111.081 17.6768 110.309 18.4325C109.536 19.1882 108.495 19.6063 107.414 19.595C106.878 19.6014 106.347 19.5022 105.85 19.3031C105.352 19.104 104.899 18.8089 104.516 18.4347C104.133 18.0604 103.827 17.6143 103.616 17.1219C103.405 16.6295 103.293 16.1003 103.287 15.5647L103.293 3.10465C103.16 0.805078 102.609 -0.623076 101.823 -1.34926C101.06 -2.05123 98.7363 -2.68059 95.1477 -2.86213H16.0183C12.7687 -2.7411 10.6567 -2.12385 9.63399 -1.24638C8.84729 -0.574665 8.25425 1.27709 8.24819 4.47834L8.23004 75.7045C8.53261 78.815 9.21643 80.8906 10.0939 81.9254C10.7596 82.7121 12.8231 83.4988 15.861 83.8861H95.2325C98.9481 83.9587 101.139 83.402 101.877 82.6577C102.694 81.8286 103.287 79.6501 103.287 76.0857V63.7104C103.287 61.4895 105.133 59.6801 107.414 59.6801C109.689 59.6801 111.535 61.4895 111.535 63.7104V76.0857C111.535 81.5321 110.422 85.6047 107.814 88.2493C105.127 90.9724 100.854 92.0617 95.1477 91.9407L15.3708 91.9225C9.94261 91.2932 6.0515 89.8045 3.73378 87.0632C1.6339 84.582 0.465965 81.0419 0 76.0918V4.47229C0.012103 -0.828827 1.28292 -4.81677 4.19974 -7.30998C6.8745 -9.60955 10.7354 -10.7291 15.861 -10.9227L95.3474 -10.9167ZM110.948 23.6011C116.516 23.6011 121.03 28.0126 121.03 33.4529V46.8388C121.03 52.2791 116.516 56.6907 110.948 56.6907H70.6271C65.0597 56.6907 60.5453 52.2731 60.5453 46.8388V33.4529C60.5453 28.0126 65.0597 23.6011 70.6271 23.6011H110.948ZM80.7089 35.341C77.9252 35.341 75.668 37.5195 75.668 40.2003C75.668 42.8872 77.9252 45.0597 80.7089 45.0597C83.4925 45.0597 85.7498 42.8812 85.7498 40.2003C85.7498 37.5135 83.4925 35.3349 80.7089 35.3349" fill="white"/>
</g>
<defs>
<clipPath id="clip0_5_712">
<rect width="121.03" height="121.03" fill="white" transform="translate(0 -20)"/>
</clipPath>
</defs>
</svg>
