<svg width="17" height="17" viewBox="0 0 17 17" fill="none" xmlns="http://www.w3.org/2000/svg">
<path fill-rule="evenodd" clip-rule="evenodd" d="M4.5 4.91738e-07L15.75 0C15.9489 0 16.1397 0.0790176 16.2803 0.21967C16.421 0.360322 16.5 0.551088 16.5 0.75V12C16.5 12.4142 16.1642 12.75 15.75 12.75C15.3358 12.75 15 12.4142 15 12V2.56066L1.28033 16.2803C0.987437 16.5732 0.512563 16.5732 0.21967 16.2803C-0.0732233 15.9874 -0.0732233 15.5126 0.21967 15.2197L13.9393 1.5L4.5 1.5C4.08579 1.5 3.75 1.16421 3.75 0.75C3.75 0.335787 4.08579 4.91738e-07 4.5 4.91738e-07Z" fill="black"/>
</svg>
